<?xml version="1.0" encoding="UTF-8"?> <svg xmlns="http://www.w3.org/2000/svg" viewBox="0 0 101 101" width="101" height="101"> <style> tspan { white-space:pre } .shp0 { fill: #488830 } </style> <g id="Layer"> <path id="Color Fill 1" fill-rule="evenodd" class="shp0" d="M89 57.44L88.94 94.4C88.94 95.22 88.27 95.89 87.44 95.89C87.44 95.89 87.44 95.89 87.44 95.89L55.5 95.85C55.1 95.84 54.72 95.69 54.44 95.41C54.16 95.12 54 94.74 54 94.34L54.06 57.39C54.06 56.56 54.73 55.89 55.56 55.89C55.56 55.89 55.56 55.89 55.56 55.89L87.5 55.94C87.9 55.94 88.28 56.1 88.56 56.38C88.84 56.66 89 57.05 89 57.44ZM57.06 58.9L57.05 65.89L85.99 65.89L86 58.94L57.06 58.9ZM85.94 92.89L85.98 68.89L57.04 68.89L57 92.85L85.94 92.89ZM53.27 46.99C49.63 45.23 45.72 44.34 41.64 44.34C27.32 44.34 15.57 55.67 14.79 69.89L44.5 69.89C45.33 69.89 46 70.56 46 71.39C46 72.22 45.33 72.89 44.5 72.89L13.25 72.89C12.43 72.89 11.75 72.22 11.75 71.39C11.75 54.82 25.16 41.33 41.64 41.33C46.17 41.33 50.53 42.33 54.58 44.29C55.33 44.65 55.64 45.55 55.28 46.29C54.92 47.04 54.02 47.35 53.27 46.99ZM24.73 20.4C24.73 10.75 32.59 2.89 42.24 2.89C51.9 2.89 59.75 10.75 59.75 20.4C59.75 30.06 51.9 37.91 42.24 37.91C32.59 37.91 24.73 30.06 24.73 20.4ZM27.73 20.4C27.73 28.4 34.24 34.91 42.24 34.91C50.24 34.91 56.75 28.4 56.75 20.4C56.75 12.4 50.24 5.89 42.24 5.89C34.24 5.89 27.73 12.4 27.73 20.4ZM67 75.4C67 76.23 66.33 76.9 65.5 76.9C65.5 76.9 65.5 76.9 65.5 76.9L63.5 76.89C62.67 76.89 62 76.22 62 75.39C62 74.56 62.67 73.89 63.5 73.89C63.5 73.89 63.5 73.89 63.5 73.89L65.5 73.9C66.33 73.9 67 74.57 67 75.4ZM74 75.4C74 76.23 73.33 76.9 72.5 76.9C72.5 76.9 72.5 76.9 72.5 76.9L70.5 76.89C69.67 76.89 69 76.22 69 75.39C69 74.56 69.67 73.89 70.5 73.89C70.5 73.89 70.5 73.89 70.5 73.89L72.5 73.9C73.33 73.9 74 74.57 74 75.4ZM81 75.4C81 76.23 80.33 76.9 79.5 76.9C79.5 76.9 79.5 76.9 79.5 76.9L77.5 76.89C76.67 76.89 76 76.22 76 75.39C76 74.56 76.67 73.89 77.5 73.89C77.5 73.89 77.5 73.89 77.5 73.89L79.5 73.9C80.33 73.9 81 74.57 81 75.4ZM67 82.4C67 83.23 66.33 83.9 65.5 83.9C65.5 83.9 65.5 83.9 65.5 83.9L63.5 83.89C62.67 83.89 62 83.22 62 82.39C62 81.56 62.67 80.89 63.5 80.89C63.5 80.89 63.5 80.89 63.5 80.89L65.5 80.9C66.33 80.9 67 81.57 67 82.4ZM74 82.4C74 83.23 73.33 83.9 72.5 83.9C72.5 83.9 72.5 83.9 72.5 83.9L70.5 83.89C69.67 83.89 69 83.22 69 82.39C69 81.56 69.67 80.89 70.5 80.89C70.5 80.89 70.5 80.89 70.5 80.89L72.5 80.9C73.33 80.9 74 81.57 74 82.4ZM81 82.4C81 83.23 80.33 83.9 79.5 83.9C79.5 83.9 79.5 83.9 79.5 83.9L77.5 83.89C76.67 83.89 76 83.22 76 82.39C76 81.56 76.67 80.89 77.5 80.89C77.5 80.89 77.5 80.89 77.5 80.89L79.5 80.9C80.33 80.9 81 81.57 81 82.4Z"></path> </g> </svg> 