<?xml version="1.0" encoding="UTF-8"?> <svg xmlns="http://www.w3.org/2000/svg" viewBox="0 0 101 101" width="101" height="101"> <style> tspan { white-space:pre } .shp0 { fill: #488830 } </style> <g id="Layer"> <path id="Color Fill 1" fill-rule="evenodd" class="shp0" d="M93.41 12.91L93.41 52.4C93.41 55.31 91.04 57.68 88.13 57.68L64.73 57.68C61.82 57.68 59.45 55.31 59.45 52.4L59.45 47.92C59.45 47.92 59.45 47.91 59.45 47.91C59.45 47.91 59.45 47.9 59.45 47.9L59.45 17.45C59.45 17.45 59.45 17.45 59.45 17.44C59.45 17.44 59.45 17.44 59.45 17.43L59.45 12.91C59.45 10.01 61.82 7.64 64.73 7.64L88.13 7.64C91.04 7.64 93.41 10.01 93.41 12.91ZM62.36 46.46L90.5 46.46L90.5 18.9L62.36 18.9L62.36 46.46ZM62.36 12.91L62.36 15.99L90.5 15.99L90.5 12.91C90.5 11.61 89.44 10.55 88.13 10.55L64.73 10.55C63.42 10.55 62.36 11.61 62.36 12.91ZM90.5 52.4L90.5 49.36L62.36 49.36L62.36 52.4C62.36 53.71 63.42 54.77 64.73 54.77L88.13 54.77C89.44 54.77 90.5 53.71 90.5 52.4ZM85.2 65.77L85.2 86.13C85.2 86.93 84.55 87.58 83.74 87.58L51.8 87.58C51 87.58 50.35 86.93 50.35 86.13C50.35 85.33 51 84.68 51.8 84.68L82.29 84.68L82.29 65.77C82.29 64.97 82.94 64.32 83.74 64.32C84.55 64.32 85.2 64.97 85.2 65.77ZM15.41 50.78L15.41 19.25C15.41 18.45 16.06 17.8 16.86 17.8L50.66 17.8C51.47 17.8 52.12 18.45 52.12 19.25C52.12 20.05 51.47 20.7 50.66 20.7L18.31 20.7L18.31 50.78C18.31 51.59 17.66 52.24 16.86 52.24C16.06 52.24 15.41 51.59 15.41 50.78ZM42.94 75.19L42.94 90.91C42.94 91.71 42.28 92.36 41.48 92.36L8.07 92.36C7.27 92.36 6.62 91.71 6.62 90.91L6.62 75.19C6.62 74.39 7.27 73.74 8.07 73.74C8.88 73.74 9.53 74.39 9.53 75.19L9.53 89.45L17.19 89.45L17.19 75.19C17.19 74.39 17.84 73.74 18.65 73.74C19.45 73.74 20.1 74.39 20.1 75.19L20.1 89.45L29.52 89.45L29.52 75.19C29.52 74.39 30.17 73.74 30.97 73.74C31.77 73.74 32.42 74.39 32.42 75.19L32.42 89.45L40.03 89.45L40.03 75.19C40.03 74.39 40.68 73.74 41.48 73.74C42.28 73.74 42.94 74.39 42.94 75.19ZM49.2 71.23C48.91 71.75 48.35 72.01 47.8 71.95C47.63 72.02 47.45 72.06 47.26 72.06L2.48 72.06C1.68 72.06 1.03 71.41 1.03 70.61C1.03 70.58 1.04 70.56 1.04 70.54C1.03 70.02 1.29 69.52 1.77 69.25L24.57 56.3C25.01 56.05 25.56 56.05 26.01 56.3L48.66 69.25C49.36 69.65 49.6 70.53 49.2 71.23ZM7.82 69.15L42.64 69.15L25.28 59.24L7.82 69.15Z"></path> </g> </svg> 