<?xml version="1.0" encoding="UTF-8"?> <svg xmlns="http://www.w3.org/2000/svg" viewBox="0 0 101 101" width="101" height="101"> <style> tspan { white-space:pre } .shp0 { fill: #488830 } </style> <path id="Color Fill 1" fill-rule="evenodd" class="shp0" d="M88.39 23.14L88.39 77.17C88.39 78 87.72 78.67 86.89 78.67L81.7 78.67L81.7 83.86C81.7 84.69 81.03 85.36 80.2 85.36L13.28 85.36C12.45 85.36 11.78 84.69 11.78 83.86C11.78 83.86 11.78 37.01 11.78 37.01C11.78 36.99 11.79 36.97 11.79 36.95C11.79 36.91 11.8 36.86 11.8 36.81C11.81 36.77 11.81 36.74 11.82 36.7C11.89 36.35 12.08 36.03 12.36 35.81L25.59 22.1C25.87 21.8 26.26 21.64 26.67 21.64L48.12 21.64C48.34 21.64 48.55 21.69 48.73 21.77L66.59 14.92C66.98 14.77 67.42 14.79 67.8 14.98C68.18 15.17 68.46 15.51 68.57 15.92L70.14 21.64L86.89 21.64C87.72 21.64 88.39 22.31 88.39 23.14ZM66.11 18.31L21.29 35.52L70.83 35.52L66.11 18.31ZM19.1 33.15L41.26 24.64L27.3 24.64L19.1 33.15ZM78.7 38.52L14.78 38.52L14.78 82.36L78.7 82.36L78.7 38.52ZM85.39 75.67L85.39 24.64L70.96 24.64L73.94 35.52L80.2 35.52C81.03 35.52 81.7 36.19 81.7 37.02L81.7 75.67L85.39 75.67Z"></path> </svg> 