<?xml version="1.0" encoding="UTF-8"?> <svg xmlns="http://www.w3.org/2000/svg" viewBox="0 0 101 101" width="101" height="101"> <style> tspan { white-space:pre } .shp0 { fill: #488830 } </style> <g id="Layer"> <path id="Color Fill 1" fill-rule="evenodd" class="shp0" d="M73.27 75.77L73.27 77.22L26.61 77.22L26.61 75.77C26.61 62.9 37.07 52.44 49.94 52.44C62.8 52.44 73.27 62.9 73.27 75.77ZM70.3 74.31C69.55 63.73 60.7 55.35 49.94 55.35C39.17 55.35 30.32 63.73 29.57 74.31L70.3 74.31ZM35.92 36.41C35.92 28.89 42.03 22.78 49.55 22.78C57.07 22.78 63.19 28.89 63.19 36.41C63.19 43.93 57.07 50.05 49.55 50.05C42.03 50.05 35.92 43.93 35.92 36.41ZM38.83 36.41C38.83 42.33 43.64 47.14 49.55 47.14C55.47 47.14 60.28 42.33 60.28 36.41C60.28 30.5 55.47 25.69 49.55 25.69C43.64 25.69 38.83 30.5 38.83 36.41ZM4.01 74.31L22.7 74.31L22.7 77.22L1.03 77.22L1.03 75.77C1.03 66 8.97 58.05 18.74 58.05C21.9 58.05 25.01 58.9 27.72 60.49L26.25 63C23.98 61.67 21.39 60.96 18.74 60.96C11.07 60.96 4.74 66.83 4.01 74.31ZM7.95 44.71C7.95 38.92 12.67 34.2 18.46 34.2C24.26 34.2 28.97 38.92 28.97 44.71C28.97 50.51 24.26 55.22 18.46 55.22C12.67 55.22 7.95 50.51 7.95 44.71ZM10.86 44.71C10.86 48.9 14.27 52.31 18.46 52.31C22.65 52.31 26.06 48.9 26.06 44.71C26.06 40.52 22.65 37.11 18.46 37.11C14.27 37.11 10.86 40.52 10.86 44.71ZM98.97 75.77L98.97 77.22L77.3 77.22L77.3 74.31L95.99 74.31C95.26 66.83 88.93 60.96 81.25 60.96C78.61 60.96 76.02 61.67 73.75 63L72.28 60.49C74.99 58.9 78.1 58.05 81.26 58.05C91.03 58.05 98.97 66 98.97 75.77ZM71.03 44.71C71.03 38.92 75.75 34.2 81.54 34.2C87.34 34.2 92.05 38.92 92.05 44.71C92.05 50.51 87.34 55.22 81.54 55.22C75.75 55.22 71.03 50.51 71.03 44.71ZM73.94 44.71C73.94 48.9 77.35 52.31 81.54 52.31C85.73 52.31 89.14 48.9 89.14 44.71C89.14 40.52 85.73 37.11 81.54 37.11C77.35 37.11 73.94 40.52 73.94 44.71Z"></path> </g> </svg> 