<?xml version="1.0" encoding="UTF-8"?> <svg xmlns="http://www.w3.org/2000/svg" viewBox="0 0 101 101" width="101" height="101"> <style> tspan { white-space:pre } .shp0 { fill: #488830 } </style> <path id="Color Fill 1" fill-rule="evenodd" class="shp0" d="M56.13 72.8C56.36 73.26 56.33 73.81 56.06 74.25C55.78 74.69 55.3 74.96 54.78 74.96L6.97 74.97C6.57 74.97 6.19 74.82 5.91 74.53C5.63 74.25 5.47 73.87 5.47 73.47L5.47 26.53C5.47 25.7 6.14 25.03 6.97 25.03L45.78 25.03C46.42 25.03 46.99 25.43 47.2 26.03L50.2 34.53C50.31 34.83 50.31 35.16 50.22 35.47L45.39 50.9L56.13 72.8ZM52.38 71.96L49.49 66.07L48.31 65.96C40.3 64.89 34.3 58.04 34.3 50C34.3 42.35 39.56 35.9 46.94 34.3L44.72 28.03L8.47 28.03L8.47 71.97L52.38 71.96ZM42.35 50.58L46.43 37.53C41.04 39.22 37.3 44.18 37.3 50C37.3 56.29 41.81 61.67 47.91 62.85L42.44 51.69C42.27 51.34 42.24 50.95 42.35 50.58ZM94.53 26.53L94.53 73.47C94.53 74.3 93.86 74.97 93.03 74.97L63.41 74.97C62.84 74.97 62.32 74.65 62.07 74.13L50.97 51.44C50.8 51.09 50.77 50.69 50.89 50.32L55.23 36.96L52.93 26.86C52.83 26.41 52.93 25.95 53.22 25.59C53.5 25.23 53.93 25.03 54.39 25.03L93.03 25.03C93.86 25.03 94.53 25.7 94.53 26.53ZM53.93 50.67L58.59 60.19C61.67 57.72 63.48 54.01 63.48 50C63.48 45.57 61.3 41.54 57.68 39.12L53.93 50.67ZM91.53 28.03L56.27 28.03L58.06 35.86C63.27 38.68 66.48 44.04 66.48 50C66.48 55.15 64.06 59.92 59.94 62.96L64.35 71.97L91.53 71.97C91.53 71.97 91.53 28.03 91.53 28.03ZM82.75 64.59L82.75 35.41C82.75 34.58 83.43 33.91 84.25 33.91C85.08 33.91 85.75 34.58 85.75 35.41L85.75 64.59C85.75 65.42 85.08 66.09 84.25 66.09C83.43 66.09 82.75 65.42 82.75 64.59ZM17.47 35.41L17.47 64.59C17.47 65.42 16.8 66.09 15.97 66.09C15.14 66.09 14.47 65.42 14.47 64.59L14.47 35.41C14.47 34.58 15.14 33.91 15.97 33.91C16.8 33.91 17.47 34.58 17.47 35.41Z"></path> </svg> 