<?xml version="1.0" encoding="UTF-8"?> <svg xmlns="http://www.w3.org/2000/svg" viewBox="0 0 100 100" width="100" height="100"> <style> tspan { white-space:pre } .shp0 { fill: #488830 } </style> <path id="Color Fill 1" fill-rule="evenodd" class="shp0" d="M72.17 7C72.79 6.98 73.4 7.09 73.98 7.31C74.55 7.53 75.08 7.86 75.53 8.29C75.98 8.71 76.34 9.22 76.59 9.78C76.84 10.35 76.98 10.95 77 11.57L77 89.43C76.98 90.05 76.84 90.65 76.59 91.22C76.34 91.78 75.98 92.29 75.53 92.71C75.08 93.14 74.55 93.47 73.98 93.69C73.4 93.91 72.79 94.02 72.17 94L27.83 94C27.21 94.02 26.6 93.91 26.02 93.69C25.45 93.47 24.92 93.14 24.47 92.71C24.02 92.29 23.66 91.78 23.41 91.22C23.16 90.65 23.02 90.05 23 89.43L23 11.57C23.02 10.95 23.16 10.35 23.41 9.78C23.66 9.22 24.02 8.71 24.47 8.29C24.92 7.86 25.45 7.53 26.02 7.31C26.6 7.09 27.21 6.98 27.83 7L72.17 7ZM26 76L74 76L74 20L26 20L26 76ZM27.17 10.08C26.96 10.15 26.76 10.27 26.59 10.41C26.42 10.56 26.28 10.73 26.18 10.93C26.08 11.13 26.02 11.35 26 11.57L26 17L74 17L74 11.57C73.98 11.35 73.92 11.13 73.82 10.93C73.72 10.73 73.58 10.56 73.41 10.41C73.24 10.27 73.04 10.15 72.83 10.08C72.62 10.01 72.39 9.98 72.17 10L27.83 10C27.61 9.98 27.38 10.01 27.17 10.08ZM72.17 91C72.39 91.02 72.62 90.99 72.83 90.92C73.04 90.85 73.24 90.73 73.41 90.59C73.58 90.44 73.72 90.27 73.82 90.07C73.92 89.87 73.98 89.65 74 89.43L74 79L26 79L26 89.43C26.02 89.65 26.08 89.87 26.18 90.07C26.28 90.27 26.42 90.44 26.59 90.59C26.76 90.73 26.96 90.85 27.17 90.92C27.38 90.99 27.61 91.02 27.83 91L72.17 91ZM50.5 88C49.12 88 48 86.88 48 85.5C48 84.12 49.12 83 50.5 83C51.88 83 53 84.12 53 85.5C53 86.88 51.88 88 50.5 88ZM54.13 42.02C54.26 42.17 54.36 42.34 54.43 42.52C54.49 42.71 54.52 42.91 54.5 43.1C54.49 43.3 54.44 43.49 54.35 43.67L48.35 55.67C48.16 56.01 47.85 56.26 47.48 56.37C47.11 56.48 46.72 56.45 46.37 56.28C46.03 56.1 45.76 55.81 45.63 55.44C45.5 55.08 45.52 54.68 45.67 54.33L51.67 42.33C51.76 42.16 51.88 42 52.03 41.87C52.18 41.74 52.35 41.65 52.53 41.58C52.72 41.52 52.91 41.5 53.11 41.51C53.3 41.52 53.49 41.57 53.67 41.66C53.85 41.75 54 41.87 54.13 42.02ZM68.56 47.94C68.7 48.08 68.81 48.24 68.88 48.43C68.96 48.61 69 48.8 69 49C69 49.2 68.96 49.39 68.88 49.57C68.81 49.76 68.7 49.92 68.56 50.06L61.56 57.06C61.28 57.36 60.9 57.53 60.49 57.54C60.08 57.54 59.69 57.39 59.4 57.1C59.11 56.81 58.96 56.42 58.96 56.01C58.97 55.6 59.14 55.22 59.44 54.94L65.38 49L59.44 43.06C59.18 42.78 59.03 42.4 59.04 42.01C59.04 41.62 59.2 41.25 59.48 40.98C59.75 40.7 60.12 40.54 60.51 40.54C60.9 40.53 61.28 40.68 61.56 40.94L68.56 47.94ZM40.76 41.7C40.83 41.88 40.86 42.06 40.86 42.24C40.86 42.42 40.83 42.6 40.76 42.78C40.7 42.95 40.6 43.1 40.48 43.24L34.48 49.24L40.48 55.24C40.74 55.52 40.89 55.9 40.88 56.29C40.88 56.68 40.72 57.05 40.44 57.32C40.17 57.6 39.8 57.76 39.41 57.76C39.02 57.77 38.64 57.62 38.36 57.36L31.36 50.36C31.22 50.22 31.11 50.06 31.04 49.87C30.96 49.69 30.92 49.5 30.92 49.3C30.92 49.1 30.96 48.91 31.04 48.73C31.11 48.54 31.22 48.38 31.36 48.24L38.36 41.24C38.5 41.1 38.66 40.99 38.85 40.92C39.03 40.84 39.22 40.8 39.42 40.8C39.62 40.8 39.81 40.84 39.99 40.92C40.18 40.99 40.34 41.1 40.48 41.24C40.6 41.38 40.7 41.53 40.76 41.7Z"></path> </svg> 