<?xml version="1.0" encoding="UTF-8"?> <svg xmlns="http://www.w3.org/2000/svg" width="1008" height="225" viewBox="0 0 1008 225" fill="none"> <path d="M571.7 145.5H562V107.8C562 103.4 561.7 100 561.2 97.8C560.7 95.6 559.4 93.7 557.3 92.1C555.3 90.5 552.9 89.7 550.2 89.7C545.2 89.7 541.1 91.7 537.7 95.8C534.4 99.9 532.7 105.3 532.7 112.1V145.6H523V61.6H532.7V94.8C537.1 86 543.4 81.6 551.5 81.6C555.2 81.6 558.4 82.3 561.2 83.8C564.1 85.2 566.3 87.1 567.8 89.5C569.3 91.8 570.4 94.1 570.9 96.4C571.4 98.7 571.7 102.5 571.7 107.8V145.5ZM495.5 114.4C491.5 114.1 488.6 114 486.5 114C478.9 114 473 115.2 468.7 117.7C464.5 120.2 462.4 123.9 462.4 128.7C462.4 131.7 463.5 134.3 465.8 136.5C468.1 138.6 471.3 139.7 475.7 139.7C481.5 139.7 486.3 137.6 490 133.3C493.8 129.1 495.6 124.1 495.6 118.4C495.7 117.3 495.6 115.9 495.5 114.4ZM506.1 145.5H496.6C496.3 143.5 495.9 139.8 495.5 134.3C491.2 142.9 484 147.2 473.7 147.2C466.7 147.2 461.4 145.4 457.6 141.6C453.8 137.9 452 133.5 452 128.3C452 122 454.6 116.9 460 112.8C465.3 108.8 474.4 106.7 487.2 106.7C488.9 106.7 491.7 106.8 495.4 107C495.4 102.1 495 98.5 494.2 96.3C493.5 94.1 491.9 92.3 489.4 91C486.9 89.7 483.7 89 479.7 89C469.9 89 464.2 92.7 462.6 100.2L453.7 98.7C455.9 87.3 465 81.5 481.1 81.5C489.7 81.5 495.8 83.4 499.3 87.2C502.9 91 504.7 97.6 504.7 106.9V133.3C504.9 137.8 505.3 141.8 506.1 145.5ZM418.1 116.7C422.2 116.7 425.5 115.4 428.1 112.9C430.7 110.4 432 107.1 432 103.1C432 99 430.7 95.6 428 93C425.3 90.4 422 89.1 418.2 89.1C414.6 89.1 411.3 90.3 408.5 92.8C405.7 95.2 404.2 98.7 404.2 103.2C404.2 107.2 405.5 110.5 408 113C410.6 115.4 414 116.7 418.1 116.7ZM406.6 142.9C402.1 144.9 399.8 147.7 399.8 151.5C399.8 154.7 401.6 157.1 405.4 158.9C409.1 160.6 413.8 161.5 419.6 161.5C424.9 161.5 429.9 160.7 434.3 159.2C438.7 157.7 440.9 155.2 440.9 151.6C440.9 149.7 440.2 148.1 438.9 146.8C437.6 145.6 435.8 144.8 433.5 144.5C431.2 144.2 427.2 143.9 421.6 143.8C414.8 143.6 409.8 143.3 406.6 142.9ZM447.7 73.6V81.3C443.3 81.3 440.3 81.8 438.8 82.8C437.3 83.8 436.3 85.7 435.8 88.3C439.8 92.9 441.8 97.9 441.8 103.3C441.8 109 439.6 113.8 435.3 117.9C431 122 425.2 124 417.8 124C416.2 124 414.8 123.9 413.6 123.6C411.4 123.1 409.9 122.9 409.4 122.9C408.3 122.9 406.9 123.4 405.4 124.5C403.8 125.6 403.1 127 403.1 128.7C403.1 131.2 404.2 132.8 406.5 133.5C408.8 134.2 414.1 134.7 422.5 134.9C429.6 135.1 434.8 135.6 438.2 136.3C441.6 137.1 444.5 138.7 446.8 141.4C449.1 144 450.3 147.2 450.3 151C450.3 162.8 439.9 168.8 419 168.8C409.1 168.8 401.9 167.3 397.4 164.3C392.9 161.3 390.6 157.3 390.6 152.4C390.6 146.4 393.7 142.2 400 140C396 137.3 393.9 134 393.9 130C393.9 125.2 396.7 121.5 402.5 119C397.1 114.7 394.4 109.2 394.4 102.6C394.4 96.5 396.7 91.4 401.3 87.5C405.9 83.6 411.5 81.6 418.1 81.6C422.8 81.6 427 82.5 430.8 84.2C431.4 80.1 432.9 77.3 435.1 75.8C437.3 74.2 440.7 73.5 445.3 73.5C445.7 73.5 446.5 73.5 447.7 73.6ZM331.3 129.3L340.5 127.4C341.5 131.8 343.9 134.8 347.7 136.5C351.5 138.2 355.6 139.1 359.9 139.1C364 139.1 367.4 138.2 370.2 136.4C373 134.6 374.4 132 374.4 128.8C374.4 123.9 370.9 120.8 363.8 119.5L350.7 117C345.6 116 341.5 114.1 338.5 111.2C335.5 108.3 334 104.5 334 99.8C334 94.6 336.1 90.2 340.2 86.7C344.4 83.2 349.9 81.4 356.9 81.4C370.4 81.4 378.7 86.7 381.9 97.2L373 99.1C370.5 92.6 365.2 89.4 357.3 89.4C353.4 89.4 350.1 90.2 347.6 91.8C345.1 93.4 343.8 95.7 343.8 98.6C343.8 103.2 347 106.1 353.5 107.2L365.6 109.4C378.3 111.7 384.6 117.8 384.6 127.8C384.6 133.6 382.2 138.2 377.4 141.7C372.6 145.2 366.6 146.9 359.2 146.9L358.1 151C362.1 151 365.2 151.8 367.2 153.3C369.2 154.8 370.3 156.8 370.3 159.2C370.3 161.5 369.4 163.6 367.5 165.4C365.6 167.2 362.6 168.2 358.5 168.2C354.2 168.2 350.6 167.3 347.6 165.4L349 161.5C352.1 162.9 355 163.6 357.7 163.6C359.6 163.6 361.1 163.2 362.2 162.4C363.4 161.6 363.9 160.6 363.9 159.3C363.9 156.4 361.5 154.9 356.8 154.9C355.7 154.9 354.2 155 352.2 155.2L355 146.8C342 145.8 334.1 139.9 331.3 129.3ZM281.6 120.7C281.7 124.2 282.3 127.3 283.3 130C284.4 132.7 286.2 135 288.7 136.9C291.3 138.8 294.3 139.8 297.9 139.8C302.7 139.8 306.8 138.1 310.1 134.6C313.5 131.2 315.3 126.5 315.7 120.7H281.6ZM281.1 101.8L272.1 100C273.7 94.7 276.9 90.3 281.7 86.8C286.5 83.3 292 81.6 298.5 81.6C307 81.6 313.9 84.6 319.1 90.6C324.3 96.6 327 104.4 327 114.1C327 124 324.3 132 318.8 138.1C313.3 144.2 306.5 147.3 298.2 147.3C290.1 147.3 283.5 144.5 278.6 138.9C273.6 133.3 271.1 124.9 271 113.7H316.2C316.2 104.3 314.2 98 310.3 94.7C306.4 91.4 302.2 89.8 297.8 89.8C289.9 89.5 284.3 93.6 281.1 101.8ZM266.6 138.9V146.5C263.2 146.9 260.3 147.2 257.7 147.2C245.7 147.2 239.7 140.9 239.7 128.3V90.9H228.7V83.3H239.7L240.1 67.7L249.1 66.8V83.3H263V90.9H249.1V130C249.1 136.4 252.4 139.6 259.1 139.6C261.3 139.5 263.8 139.3 266.6 138.9ZM211 114.4C207.1 114.1 204.1 114 202 114C194.4 114 188.4 115.2 184.2 117.7C179.9 120.2 177.9 123.9 177.9 128.7C177.9 131.7 179 134.3 181.3 136.5C183.6 138.6 186.9 139.7 191.2 139.7C197 139.7 201.8 137.6 205.6 133.3C209.4 129.1 211.2 124.1 211.2 118.4C211.2 117.3 211.1 115.9 211 114.4ZM221.7 145.5H212.2C211.8 143.5 211.5 139.8 211.1 134.3C206.8 142.9 199.6 147.2 189.3 147.2C182.3 147.2 176.9 145.4 173.2 141.6C169.5 137.9 167.6 133.5 167.6 128.3C167.6 122 170.3 116.9 175.6 112.8C181 108.8 190 106.7 202.8 106.7C204.5 106.7 207.3 106.8 211.1 107C211.1 102.1 210.7 98.5 210 96.3C209.2 94.1 207.6 92.3 205.2 91C202.7 89.7 199.5 89 195.4 89C185.6 89 179.9 92.7 178.3 100.2L169.4 98.7C171.6 87.3 180.7 81.5 196.8 81.5C205.4 81.5 211.4 83.4 215 87.2C218.6 91 220.4 97.6 220.4 106.9V133.3C220.4 137.8 220.8 141.8 221.7 145.5Z" fill="#323E48"></path> <path d="M919.7 114.4C915.8 114.1 912.8 114 910.7 114C903.1 114 897.1 115.2 892.9 117.7C888.7 120.2 886.6 123.9 886.6 128.7C886.6 131.7 887.8 134.3 890 136.5C892.3 138.6 895.6 139.7 899.9 139.7C905.7 139.7 910.5 137.6 914.3 133.3C918.1 129.1 919.9 124.1 919.9 118.4C919.9 117.3 919.9 115.9 919.7 114.4ZM930.4 145.5H920.9C920.5 143.5 920.2 139.8 919.8 134.3C915.5 142.9 908.3 147.2 898 147.2C891 147.2 885.7 145.4 881.9 141.6C878.2 137.9 876.3 133.5 876.3 128.3C876.3 122 879 116.9 884.3 112.8C889.6 108.8 898.7 106.7 911.5 106.7C913.2 106.7 916 106.8 919.7 107C919.7 102.1 919.3 98.5 918.6 96.3C917.9 94.1 916.3 92.3 913.8 91C911.4 89.7 908.1 89 904.1 89C894.3 89 888.6 92.7 887 100.2L878.1 98.7C880.3 87.3 889.4 81.5 905.5 81.5C914.1 81.5 920.2 83.4 923.8 87.2C927.4 91 929.2 97.6 929.2 106.9V133.3C929.1 137.8 929.5 141.8 930.4 145.5ZM872.5 138.9V146.5C869.1 146.9 866.1 147.2 863.6 147.2C851.6 147.2 845.6 140.9 845.6 128.3V90.9H834.6V83.3H845.6L846 67.7L855 66.8V83.3H868.9V90.9H855V130C855 136.4 858.3 139.6 865 139.6C867.2 139.5 869.7 139.3 872.5 138.9ZM809.5 145.5H799.9V83.3H808.4V97.8C811.4 91 814.4 86.5 817.4 84.5C820.4 82.5 823.5 81.5 826.7 81.5C827.7 81.5 828.9 81.6 830.5 81.7V90.9H828.5C823.2 90.9 818.8 92.9 815.2 96.9C811.7 100.9 809.8 106.1 809.5 112.6V145.5ZM758.6 139.2C763.5 139.2 767.7 137.2 771 133.1C774.3 129 776 122.7 776 114.1C776 105.5 774.3 99.2 770.8 95.4C767.3 91.5 763.2 89.5 758.5 89.5C753.7 89.5 749.7 91.5 746.3 95.4C743 99.3 741.3 105.5 741.3 114C741.3 123 743 129.4 746.3 133.3C749.7 137.2 753.7 139.2 758.6 139.2ZM757.9 147.2C749.4 147.2 742.7 144 738 137.7C733.2 131.4 730.8 123.5 730.8 114.2C730.8 104.3 733.5 96.4 738.8 90.5C744.2 84.6 750.8 81.6 758.9 81.6C767.5 81.6 774.2 84.7 779.1 90.9C784.1 97.1 786.5 104.9 786.5 114.2C786.5 123.9 783.8 131.8 778.5 137.9C773.2 144.1 766.3 147.2 757.9 147.2ZM696.2 116.7C700.3 116.7 703.7 115.4 706.2 112.9C708.8 110.4 710.1 107.1 710.1 103.1C710.1 99 708.8 95.6 706.1 93C703.4 90.4 700.2 89.1 696.4 89.1C692.8 89.1 689.5 90.3 686.7 92.8C683.9 95.2 682.5 98.7 682.5 103.2C682.5 107.2 683.8 110.5 686.3 112.9C688.7 115.4 692.1 116.7 696.2 116.7ZM678.1 57H685.1C686.1 62.6 689.9 65.4 696.2 65.4C702.9 65.4 706.8 62.6 707.8 57H714.8C713 67.5 707.2 72.7 697.2 72.7C686 72.7 679.6 67.5 678.1 57ZM684.6 142.9C680.1 144.9 677.9 147.7 677.9 151.5C677.9 154.7 679.8 157.1 683.4 158.9C687.1 160.6 691.8 161.5 697.6 161.5C702.9 161.5 707.8 160.7 712.3 159.2C716.7 157.7 719 155.2 719 151.6C719 149.7 718.3 148.1 717 146.8C715.7 145.6 713.9 144.8 711.6 144.5C709.3 144.2 705.3 143.9 699.7 143.8C692.9 143.6 687.9 143.3 684.6 142.9ZM725.7 73.6V81.3C721.3 81.3 718.3 81.8 716.8 82.8C715.3 83.8 714.3 85.7 713.8 88.3C717.8 92.9 719.8 97.9 719.8 103.3C719.8 109 717.6 113.8 713.3 117.9C709 122 703.2 124 695.9 124C694.3 124 692.8 123.9 691.7 123.6C689.4 123.1 688 122.9 687.4 122.9C686.3 122.9 685 123.4 683.4 124.5C681.9 125.6 681.1 127 681.1 128.7C681.1 131.2 682.2 132.8 684.5 133.5C686.7 134.2 692.1 134.7 700.4 134.9C707.5 135.1 712.7 135.6 716.1 136.3C719.5 137.1 722.4 138.8 724.7 141.4C727 144 728.2 147.2 728.2 151C728.2 162.8 717.8 168.8 697 168.8C687.1 168.8 679.9 167.3 675.4 164.3C670.9 161.3 668.6 157.3 668.6 152.4C668.6 146.4 671.7 142.2 678.1 140C674 137.3 672 134 672 130C672 125.2 674.9 121.5 680.6 119C675.2 114.7 672.5 109.2 672.5 102.6C672.5 96.5 674.8 91.4 679.4 87.5C684 83.6 689.6 81.6 696.2 81.6C700.9 81.6 705.1 82.5 708.9 84.2C709.5 80.1 710.9 77.3 713.2 75.8C715.4 74.2 718.8 73.5 723.4 73.5C723.8 73.5 724.6 73.5 725.7 73.6ZM656.9 145.5H647.2V83.3H656.9V145.5ZM581.7 129.3L590.9 127.4C593 135.2 599.4 139.1 610.3 139.1C614.3 139.1 617.7 138.2 620.5 136.4C623.3 134.6 624.7 132 624.7 128.8C624.7 123.9 621.2 120.8 614.1 119.5L601 117C595.9 116 591.8 114.1 588.8 111.2C585.8 108.3 584.3 104.5 584.3 99.8C584.3 94.6 586.4 90.2 590.5 86.7C594.6 83.2 600.2 81.5 607.2 81.5C620.7 81.5 629 86.8 632.2 97.3L623.4 99.2C620.8 92.7 615.6 89.5 607.7 89.5C603.8 89.5 600.5 90.3 598 91.9C595.5 93.5 594.2 95.8 594.2 98.7C594.2 103.3 597.4 106.2 603.9 107.3L616 109.5C628.7 111.8 635 117.9 635 127.9C635 133.6 632.6 138.2 627.9 141.7C623.2 145.2 616.9 147 609.1 147C594.3 147.2 585.2 141.2 581.7 129.3Z" fill="#FF8300"></path> <path d="M96.4673 104.136C108.909 83.4709 120.657 64.034 119.535 47.4806L118.788 36.1602L124.234 43.0485C126.317 45.665 128.186 48.2816 129.841 50.9515C132.137 35.6262 127.865 19.6068 114.729 3C116.011 22.2767 103.409 42.6748 89.8993 65.1553C78.6323 83.8447 76.0158 103.816 87.1226 124.854C88.8847 118.447 91.7148 112.092 95.5061 105.684L96.4673 104.136Z" fill="#FFCD00"></path> <path d="M107.788 145.413C120.229 124.801 131.977 105.364 130.802 88.8641L130.055 77.4903L135.501 84.3786C136.409 85.5 137.21 86.6748 138.064 87.8495C138.331 74.6602 133.579 60.9369 122.419 46.8398C123.7 66.1165 111.098 86.568 97.5352 108.995C85.6274 128.859 83.3847 150.112 97.0012 172.539C98.4964 163.995 101.754 155.451 106.826 147.068L107.788 145.413Z" fill="#FF8300"></path> <path d="M133.686 88.2233C135.021 107.5 122.365 127.951 108.802 150.379C95.2391 172.859 94.2245 197.209 114.623 223C113.341 203.723 125.943 183.325 139.506 160.845C153.069 138.364 154.084 114.015 133.686 88.2233Z" fill="#E1251B"></path> </svg> 