<?xml version="1.0" encoding="UTF-8"?> <!-- Generator: Adobe Illustrator 25.2.1, SVG Export Plug-In . SVG Version: 6.00 Build 0) --> <svg xmlns="http://www.w3.org/2000/svg" xmlns:xlink="http://www.w3.org/1999/xlink" id="Layer_1" x="0px" y="0px" viewBox="0 0 24 24" style="enable-background:new 0 0 24 24;" xml:space="preserve"> <style type="text/css"> .st0{fill-rule:evenodd;clip-rule:evenodd;fill:#ECA403;} </style> <path class="st0" d="M7.3,2h9.3C20.1,2,22,3.9,22,7.3v9.3c0,3.4-1.9,5.3-5.3,5.3H7.3C3.9,22,2,20.1,2,16.7V7.3C2,3.9,3.9,2,7.3,2z M12,17.9c0.4,0,0.8-0.3,0.8-0.8V6.9c0-0.3-0.1-0.6-0.4-0.8c-0.3-0.2-0.6-0.2-0.9,0c-0.3,0.2-0.4,0.5-0.4,0.8v10.2 C11.3,17.5,11.6,17.9,12,17.9z M16.7,17.9c0.4,0,0.8-0.3,0.8-0.8v-3.3c0-0.3-0.1-0.6-0.4-0.8c-0.3-0.2-0.6-0.2-0.9,0 c-0.3,0.2-0.4,0.5-0.4,0.8v3.3C15.9,17.5,16.2,17.9,16.7,17.9z M8.2,17.1c0,0.4-0.4,0.8-0.8,0.8c-0.4,0-0.8-0.3-0.8-0.8v-6.9 c0-0.3,0.1-0.6,0.4-0.8c0.3-0.2,0.6-0.2,0.9,0c0.3,0.2,0.4,0.5,0.4,0.8V17.1z"></path> </svg> 