<?xml version="1.0" encoding="UTF-8"?> <svg xmlns="http://www.w3.org/2000/svg" viewBox="0 0 291 407" width="291" height="407"> <defs> <linearGradient id="grd1" gradientUnits="userSpaceOnUse" x1="303.647" y1="94.458" x2="160.578" y2="362.078"> <stop offset="0" stop-color="#aac83b"></stop> <stop offset="0.313" stop-color="#79b42d"></stop> <stop offset="0.657" stop-color="#599832"></stop> <stop offset="1" stop-color="#488932"></stop> </linearGradient> <linearGradient id="grd2" gradientUnits="userSpaceOnUse" x1="147.719" y1="11.258" x2="4.65" y2="278.613"> <stop offset="0" stop-color="#aac83b"></stop> <stop offset="0.313" stop-color="#79b42d"></stop> <stop offset="0.657" stop-color="#599832"></stop> <stop offset="1" stop-color="#488932"></stop> </linearGradient> <linearGradient id="grd3" gradientUnits="userSpaceOnUse" x1="177.092" y1="26.922" x2="34.021" y2="294.45"> <stop offset="0" stop-color="#aac83b"></stop> <stop offset="0.313" stop-color="#79b42d"></stop> <stop offset="0.657" stop-color="#599832"></stop> <stop offset="1" stop-color="#488932"></stop> </linearGradient> <linearGradient id="grd4" gradientUnits="userSpaceOnUse" x1="274.605" y1="79.086" x2="131.591" y2="346.469"> <stop offset="0" stop-color="#aac83b"></stop> <stop offset="0.313" stop-color="#79b42d"></stop> <stop offset="0.657" stop-color="#599832"></stop> <stop offset="1" stop-color="#488932"></stop> </linearGradient> </defs> <style> tspan { white-space:pre } .shp0 { fill: url(#grd1) } .shp1 { fill: url(#grd2) } .shp2 { fill: url(#grd3) } .shp3 { fill: url(#grd4) } .shp4 { fill: #0d0f1a } </style> <g id="Layer"> <path id="Layer" class="shp0" d="M230.15 71.14L230.15 336.11L290.54 279.99L290.54 125.66C271.58 108.83 250.07 89.29 230.15 71.14Z"></path> <path id="Layer" class="shp1" d="M0 279.99L60.39 336.11L60.39 71.14C40.47 89.29 18.96 108.83 0 125.66L0 279.99Z"></path> <path id="Layer" class="shp2" d="M167.71 20.17L167.45 19.94C166.88 19.41 166.31 18.88 165.74 18.36L165.73 18.35L163.83 16.59L163.23 16.03L161.97 14.86L158.41 11.56L158.29 11.45L155.94 9.27L153.73 7.22C153.04 6.58 152.35 5.94 151.66 5.3L149.41 3.21L149.28 3.09L145.95 0L115.2 26.22L115.11 123.38L115.1 123.38L115.07 148.58L115.07 190.95L175.93 145.49L175.94 135.73L175.96 135.73L176.05 27.89L175.68 27.54C172.91 24.98 170.25 22.53 167.71 20.17Z"></path> <path id="Layer" class="shp3" d="M115.19 378.43C126.66 389.02 136.01 397.69 145.17 406.21L175.92 379.98L175.92 215.35L115.19 260.71L115.19 378.43Z"></path> <path id="Layer" class="shp4" d="M369.86 119.5L393.08 119.5L393.08 285L369.86 285L369.86 119.5ZM384.32 192.46L476.17 192.46L476.17 214.55L384.32 214.55L384.32 192.46ZM463.88 119.5L487.1 119.5L487.1 285.01L463.88 285.01L463.88 119.5Z"></path> <path id="Layer" class="shp4" d="M557.79 286.71C557.79 286.71 553.92 284.66 546.18 280.56C544.28 279.57 542.47 278.43 540.75 277.15C539.03 275.88 537.41 274.47 535.91 272.94C534.41 271.41 533.03 269.76 531.79 268.02C530.54 266.28 529.44 264.44 528.48 262.52C524.42 254.59 522.39 245.01 522.39 233.78L522.39 220.46C522.39 208.78 524.34 198.8 528.25 190.53C529.14 188.56 530.18 186.67 531.36 184.87C532.54 183.07 533.85 181.36 535.29 179.76C536.74 178.16 538.3 176.67 539.97 175.31C541.64 173.95 543.41 172.72 545.27 171.63C552.7 167.3 561.66 165.14 572.13 165.14C582 165.14 590.42 167.61 597.4 172.54C604.39 177.48 609.72 184.61 613.4 193.94C617.08 203.28 618.92 214.47 618.92 227.52L618.92 235.26L539.24 235.26L539.24 216.59L596.84 216.59C596.15 206.96 593.67 199.46 589.38 194.11C585.1 188.76 579.35 186.09 572.14 186.09C563.33 186.09 556.52 188.97 551.71 194.74C546.89 200.51 544.48 208.66 544.48 219.21L544.48 234.24C544.48 244.03 547.06 251.54 552.22 256.77C557.38 262.01 564.7 264.63 574.19 264.63C575.38 264.62 576.58 264.56 577.77 264.44C578.97 264.32 580.15 264.13 581.33 263.9C582.5 263.66 583.66 263.36 584.81 263.01C585.95 262.66 587.08 262.25 588.19 261.78C589.33 261.32 590.45 260.8 591.55 260.23C592.65 259.66 593.72 259.04 594.76 258.37C595.8 257.7 596.81 256.99 597.78 256.23C598.75 255.47 599.69 254.66 600.59 253.82L615.85 269.07C614.42 270.45 612.94 271.76 611.4 273C609.85 274.24 608.25 275.41 606.6 276.5C604.95 277.59 603.25 278.61 601.51 279.54C599.76 280.48 597.98 281.33 596.15 282.1C594.42 282.85 592.66 283.51 590.86 284.08C589.07 284.65 587.25 285.13 585.4 285.52C583.56 285.9 581.7 286.2 579.82 286.4C577.95 286.6 576.07 286.7 574.18 286.71L557.79 286.71Z"></path> <path id="Layer" class="shp4" d="M682.09 286.71L672.93 284.66C671.44 284.33 669.97 283.96 668.51 283.54C667.04 283.12 665.6 282.65 664.17 282.14C662.73 281.62 661.32 281.06 659.92 280.46C658.53 279.86 657.15 279.21 655.8 278.51C654.47 277.83 653.16 277.1 651.88 276.33C650.59 275.56 649.34 274.74 648.11 273.88C646.88 273.03 645.69 272.13 644.52 271.19C643.35 270.26 642.22 269.28 641.11 268.27L654.89 251.31C656.33 252.44 657.82 253.52 659.34 254.54C660.86 255.56 662.41 256.53 664 257.45C665.59 258.36 667.21 259.22 668.86 260.02C670.51 260.82 672.19 261.56 673.89 262.24C675.38 262.83 676.89 263.35 678.41 263.79C679.94 264.24 681.49 264.62 683.06 264.93C684.62 265.23 686.2 265.46 687.79 265.62C689.38 265.78 690.97 265.87 692.56 265.88C701.74 265.88 708.63 264.46 713.22 261.61C717.81 258.77 720.11 254.5 720.11 248.8C720.11 245.01 718.86 242.17 716.35 240.27C715.67 239.77 714.95 239.31 714.21 238.9C713.47 238.49 712.7 238.12 711.92 237.8C711.13 237.48 710.33 237.21 709.51 236.98C708.69 236.76 707.86 236.58 707.02 236.45C703.3 235.81 698.06 235.22 691.31 234.69C690.7 234.69 690.06 234.67 689.38 234.63C688.7 234.59 688.05 234.54 687.44 234.46C687.36 234.46 687.29 234.46 687.21 234.46C687.14 234.46 687.06 234.45 686.98 234.45C686.91 234.44 686.83 234.44 686.76 234.43C686.68 234.42 686.6 234.42 686.53 234.41C686.45 234.4 686.38 234.39 686.3 234.38C686.23 234.37 686.15 234.37 686.07 234.36C686 234.36 685.92 234.36 685.85 234.35C685.77 234.35 685.7 234.35 685.62 234.35C683.97 234.25 682.33 234.1 680.69 233.91C679.05 233.71 677.42 233.48 675.8 233.2C674.17 232.92 672.55 232.59 670.95 232.22C669.34 231.86 667.74 231.44 666.15 230.99C664.85 230.59 663.57 230.1 662.34 229.5C661.11 228.91 659.93 228.22 658.81 227.45C657.69 226.67 656.62 225.81 655.63 224.87C654.64 223.93 653.73 222.91 652.89 221.83C649.36 217.35 647.6 210.94 647.6 202.59C647.6 194.24 649.31 187.3 652.72 181.76C653.62 180.35 654.62 179.01 655.73 177.76C656.84 176.51 658.04 175.35 659.34 174.3C660.63 173.24 662.01 172.29 663.46 171.45C664.9 170.61 666.41 169.9 667.98 169.3C674.73 166.53 683.19 165.15 693.36 165.15C694.83 165.14 696.31 165.17 697.78 165.24C699.26 165.31 700.73 165.41 702.2 165.56C703.66 165.7 705.13 165.88 706.59 166.09C708.05 166.31 709.5 166.56 710.95 166.85C712.32 167.13 713.68 167.45 715.04 167.8C716.4 168.15 717.74 168.54 719.08 168.96C720.41 169.38 721.74 169.84 723.05 170.33C724.36 170.83 725.66 171.36 726.94 171.92C728.23 172.49 729.51 173.1 730.77 173.74C732.04 174.38 733.28 175.06 734.51 175.77C735.73 176.47 736.94 177.22 738.13 177.99C739.31 178.76 740.48 179.56 741.62 180.4L727.62 197.36C726.26 196.47 724.88 195.62 723.46 194.82C722.05 194.02 720.61 193.26 719.15 192.54C717.69 191.83 716.21 191.16 714.71 190.54C713.21 189.92 711.69 189.35 710.15 188.82C708.8 188.36 707.43 187.96 706.05 187.61C704.67 187.26 703.28 186.96 701.87 186.72C700.47 186.49 699.05 186.3 697.63 186.18C696.21 186.05 694.79 185.99 693.36 185.98C685.47 185.98 679.55 187.32 675.6 190.02C671.66 192.71 669.69 196.75 669.69 202.14C669.64 202.83 669.68 203.52 669.81 204.2C669.94 204.87 670.15 205.53 670.44 206.16C670.74 206.78 671.11 207.37 671.55 207.9C671.98 208.43 672.49 208.91 673.04 209.31C673.68 209.74 674.33 210.13 675.01 210.47C675.69 210.82 676.38 211.13 677.1 211.4C677.81 211.67 678.54 211.9 679.28 212.08C680.02 212.26 680.77 212.4 681.52 212.5C684.94 213.03 689.79 213.49 696.09 213.87C696.21 213.88 696.33 213.9 696.45 213.92C696.57 213.93 696.68 213.94 696.8 213.95C696.92 213.96 697.04 213.97 697.16 213.97C697.28 213.98 697.4 213.98 697.52 213.98C697.65 213.98 697.77 213.98 697.9 213.99C698.03 213.99 698.16 214 698.29 214.01C698.42 214.02 698.54 214.03 698.67 214.04C698.8 214.06 698.93 214.07 699.05 214.09L699.74 214.09C699.79 214.09 699.85 214.1 699.91 214.1C699.97 214.11 700.03 214.11 700.08 214.12C700.14 214.13 700.2 214.14 700.25 214.16C700.31 214.17 700.36 214.19 700.42 214.21C702.2 214.29 703.98 214.43 705.76 214.61C707.53 214.79 709.3 215.02 711.06 215.29C712.83 215.57 714.58 215.89 716.33 216.26C718.07 216.63 719.81 217.04 721.53 217.51C722.97 217.92 724.38 218.44 725.73 219.08C727.09 219.71 728.39 220.45 729.63 221.29C730.87 222.13 732.05 223.07 733.14 224.09C734.23 225.11 735.24 226.22 736.16 227.41C740.11 232.34 742.08 239.47 742.08 248.81C742.08 257.31 740.26 264.34 736.61 269.92C732.97 275.5 727.49 279.69 720.17 282.5C712.84 285.31 703.64 286.71 692.57 286.71L682.09 286.71Z"></path> <path id="Layer" class="shp4" d="M776.8 277.66C769.59 271.63 765.98 262.47 765.98 250.18C765.98 238.49 769.28 229.72 775.88 223.88C782.48 218.04 792.46 215.12 805.82 215.12L839.4 215.12L840.99 233.78L805.94 233.78C799.86 233.78 795.33 235.13 792.34 237.82C789.34 240.52 787.84 244.63 787.84 250.18C787.84 256.17 789.83 260.61 793.82 263.49C797.8 266.38 803.85 267.82 811.97 267.82C820.85 267.82 827.47 266.87 831.83 264.97C836.2 263.08 838.38 260.12 838.38 256.09L840.77 272.71C840.28 273.49 839.75 274.23 839.19 274.95C838.62 275.67 838.02 276.36 837.38 277.02C836.75 277.68 836.08 278.31 835.38 278.9C834.68 279.49 833.95 280.05 833.2 280.57C832.41 281.1 831.59 281.59 830.76 282.05C829.92 282.51 829.07 282.94 828.19 283.32C827.32 283.71 826.43 284.06 825.53 284.37C824.63 284.68 823.71 284.95 822.79 285.18C821.7 285.44 820.6 285.68 819.5 285.88C818.4 286.08 817.29 286.24 816.17 286.37C815.06 286.5 813.95 286.59 812.83 286.65C811.71 286.71 810.59 286.73 809.47 286.71C794.9 286.71 784.01 283.7 776.8 277.66ZM838.38 210.11C838.38 202.37 836.31 196.35 832.18 192.07C828.04 187.78 822.18 185.63 814.59 185.63C813.42 185.63 812.25 185.68 811.08 185.77C809.91 185.86 808.75 186 807.59 186.18C806.43 186.36 805.28 186.58 804.14 186.85C803 187.12 801.88 187.44 800.76 187.8C799.69 188.13 798.63 188.51 797.58 188.93C796.54 189.35 795.51 189.81 794.51 190.32C793.5 190.82 792.52 191.37 791.56 191.96C790.6 192.54 789.66 193.17 788.75 193.83L771.79 182.22C772.98 180.83 774.25 179.51 775.6 178.27C776.94 177.04 778.37 175.89 779.86 174.83C781.35 173.77 782.9 172.8 784.51 171.94C786.12 171.07 787.79 170.3 789.49 169.64C791.43 168.87 793.4 168.2 795.4 167.63C797.4 167.05 799.43 166.57 801.48 166.19C803.53 165.82 805.59 165.54 807.67 165.36C809.74 165.19 811.83 165.11 813.91 165.14C823.7 165.14 832.08 166.87 839.06 170.32C840.74 171.12 842.35 172.05 843.88 173.1C845.41 174.15 846.85 175.32 848.2 176.59C849.55 177.86 850.8 179.24 851.94 180.71C853.08 182.17 854.1 183.72 855 185.35C858.64 191.91 860.46 199.82 860.46 209.08L860.46 285L838.38 285L838.38 210.11Z"></path> <path id="Layer" class="shp4" d="M895.74 119.5L918.97 119.5L918.97 285L895.75 285L895.74 119.5ZM929.44 281.42C928.07 280.53 926.78 279.53 925.57 278.44C924.36 277.35 923.24 276.16 922.21 274.89C921.19 273.62 920.27 272.28 919.46 270.86C918.65 269.45 917.95 267.97 917.37 266.45L918.97 241.75C918.93 242.86 918.97 243.98 919.07 245.09C919.17 246.2 919.33 247.31 919.56 248.4C919.79 249.49 920.08 250.57 920.44 251.63C920.8 252.68 921.22 253.72 921.7 254.73C922.13 255.59 922.62 256.42 923.18 257.21C923.74 257.99 924.35 258.74 925.02 259.43C925.69 260.13 926.41 260.77 927.18 261.35C927.95 261.94 928.76 262.46 929.61 262.93C930.57 263.42 931.57 263.86 932.59 264.23C933.61 264.6 934.66 264.91 935.72 265.15C936.78 265.39 937.85 265.56 938.93 265.66C940.01 265.77 941.1 265.8 942.19 265.77C949.85 265.77 955.79 263.44 960 258.77C964.21 254.1 966.32 247.52 966.32 239.02L966.32 213.41C966.32 204.76 964.21 198.04 960 193.26C955.79 188.48 949.85 186.09 942.19 186.09C941.1 186.06 940.02 186.09 938.94 186.19C937.86 186.29 936.79 186.46 935.73 186.69C934.67 186.92 933.63 187.21 932.6 187.57C931.58 187.93 930.58 188.35 929.61 188.82C928.76 189.27 927.95 189.77 927.18 190.34C926.42 190.91 925.69 191.53 925.02 192.21C924.35 192.89 923.74 193.62 923.18 194.4C922.62 195.18 922.13 195.99 921.7 196.85C921.22 197.83 920.8 198.84 920.45 199.87C920.09 200.91 919.8 201.96 919.57 203.03C919.34 204.1 919.17 205.18 919.07 206.27C918.97 207.35 918.94 208.45 918.97 209.54L916.58 186.77C917.37 185.17 918.26 183.61 919.26 182.12C920.25 180.63 921.34 179.2 922.52 177.85C923.7 176.51 924.97 175.24 926.32 174.05C927.66 172.87 929.09 171.78 930.58 170.78C931.99 169.85 933.48 169.03 935.02 168.32C936.56 167.61 938.15 167.01 939.78 166.54C941.4 166.06 943.06 165.7 944.74 165.47C946.42 165.24 948.12 165.13 949.81 165.15C958.16 165.15 965.31 167.03 971.27 170.78C972.79 171.76 974.23 172.86 975.58 174.06C976.93 175.26 978.19 176.56 979.34 177.95C980.49 179.35 981.54 180.83 982.46 182.38C983.39 183.93 984.19 185.55 984.87 187.23C987.98 194.44 989.54 203.13 989.54 213.3L989.54 239.02C989.54 249.04 987.94 257.61 984.76 264.75C984.04 266.42 983.21 268.04 982.25 269.59C981.29 271.14 980.21 272.61 979.02 274C977.84 275.38 976.55 276.67 975.16 277.86C973.78 279.04 972.3 280.12 970.76 281.08C964.61 284.84 957.25 286.72 948.67 286.72C946.99 286.75 945.3 286.67 943.62 286.46C941.95 286.26 940.29 285.93 938.67 285.48C937.04 285.03 935.45 284.47 933.9 283.79C932.36 283.11 930.87 282.31 929.44 281.42L929.44 281.42Z"></path> <path id="Layer" class="shp4" d="M1027.67 277.66C1020.46 271.63 1016.86 262.47 1016.86 250.18C1016.86 238.49 1020.16 229.72 1026.76 223.88C1033.36 218.04 1043.34 215.12 1056.69 215.12L1090.27 215.12L1091.87 233.78L1056.81 233.78C1050.74 233.78 1046.2 235.13 1043.21 237.82C1040.21 240.52 1038.71 244.63 1038.71 250.18C1038.71 256.17 1040.71 260.61 1044.69 263.49C1048.67 266.38 1054.72 267.82 1062.84 267.82C1071.72 267.82 1078.34 266.87 1082.71 264.97C1087.07 263.08 1089.25 260.12 1089.25 256.09L1091.64 272.71C1091.15 273.49 1090.62 274.23 1090.06 274.95C1089.49 275.67 1088.89 276.36 1088.26 277.02C1087.62 277.68 1086.95 278.31 1086.25 278.9C1085.56 279.49 1084.83 280.05 1084.07 280.57C1083.28 281.1 1082.47 281.59 1081.63 282.05C1080.79 282.51 1079.94 282.94 1079.07 283.32C1078.19 283.71 1077.3 284.06 1076.4 284.37C1075.5 284.68 1074.58 284.95 1073.66 285.18C1072.57 285.44 1071.47 285.68 1070.37 285.88C1069.27 286.08 1068.16 286.24 1067.05 286.37C1065.93 286.5 1064.82 286.59 1063.7 286.65C1062.58 286.7 1061.46 286.73 1060.34 286.71C1045.77 286.71 1034.88 283.7 1027.67 277.66ZM1089.25 210.11C1089.25 202.37 1087.18 196.35 1083.05 192.07C1078.92 187.78 1073.05 185.63 1065.46 185.63C1064.29 185.63 1063.12 185.68 1061.95 185.77C1060.78 185.86 1059.62 186 1058.46 186.18C1057.31 186.36 1056.16 186.58 1055.02 186.85C1053.88 187.12 1052.75 187.44 1051.63 187.8C1050.56 188.13 1049.5 188.51 1048.45 188.93C1047.41 189.35 1046.39 189.81 1045.38 190.32C1044.37 190.82 1043.39 191.37 1042.43 191.96C1041.47 192.54 1040.53 193.17 1039.63 193.83L1022.66 182.22C1023.85 180.83 1025.12 179.51 1026.47 178.27C1027.82 177.04 1029.24 175.89 1030.73 174.83C1032.22 173.77 1033.78 172.8 1035.39 171.94C1037 171.07 1038.66 170.3 1040.36 169.64C1042.3 168.87 1044.27 168.2 1046.27 167.63C1048.27 167.05 1050.3 166.57 1052.35 166.19C1054.4 165.82 1056.46 165.54 1058.54 165.36C1060.61 165.19 1062.7 165.11 1064.78 165.14C1074.57 165.14 1082.95 166.87 1089.93 170.32C1091.61 171.12 1093.22 172.05 1094.75 173.1C1096.28 174.15 1097.72 175.32 1099.07 176.59C1100.42 177.86 1101.67 179.24 1102.81 180.71C1103.95 182.17 1104.97 183.72 1105.87 185.35C1109.51 191.91 1111.33 199.82 1111.33 209.08L1111.33 285L1089.25 285L1089.25 210.11Z"></path> <path id="Layer" class="shp4" d="M1137.52 166.85L1190.79 166.85L1190.79 187.79L1137.52 187.79L1137.52 166.85ZM1156.35 277.66C1151.92 272.39 1149.7 264.59 1149.7 254.27L1149.7 132.47L1172.92 132.47L1172.92 254.49C1172.88 255.07 1172.89 255.66 1172.94 256.24C1173 256.82 1173.1 257.39 1173.24 257.96C1173.39 258.52 1173.58 259.07 1173.81 259.61C1174.04 260.14 1174.31 260.66 1174.62 261.15C1174.91 261.54 1175.24 261.89 1175.62 262.19C1175.99 262.49 1176.4 262.75 1176.83 262.95C1177.27 263.15 1177.73 263.3 1178.2 263.39C1178.67 263.48 1179.15 263.51 1179.63 263.49L1190.79 263.49L1190.79 285.57L1177.36 285.57C1167.79 285.57 1160.79 282.94 1156.35 277.66L1156.35 277.66Z"></path> </g> </svg> 