<?xml version="1.0" encoding="UTF-8"?> <svg xmlns="http://www.w3.org/2000/svg" xmlns:xlink="http://www.w3.org/1999/xlink" width="1190.787" height="406.206" viewBox="0 0 1190.787 406.206"> <defs> <linearGradient id="a" x1="1.217" y1="0.088" x2="-1.152" y2="1.098" gradientUnits="objectBoundingBox"> <stop offset="0" stop-color="#aac83b"></stop> <stop offset="0.313" stop-color="#79b42d"></stop> <stop offset="0.657" stop-color="#599832"></stop> <stop offset="1" stop-color="#488932"></stop> </linearGradient> <linearGradient id="b" x1="2.446" y1="-0.226" x2="0.077" y2="0.783" xlink:href="#a"></linearGradient> <linearGradient id="c" x1="1.017" y1="0.141" x2="-1.329" y2="1.542" xlink:href="#a"></linearGradient> <linearGradient id="d" x1="2.625" y1="-0.714" x2="0.27" y2="0.687" xlink:href="#a"></linearGradient> </defs> <g transform="translate(-405.23 -797.236)"> <path d="M635.38,868.377v264.97l60.392-56.117V922.9C676.811,906.061,655.3,886.528,635.38,868.377Z" fill="url(#a)"></path> <path d="M405.23,1077.23l60.392,56.117V868.377C445.7,886.528,424.191,906.061,405.23,922.9Z" fill="url(#b)"></path> <path d="M572.936,817.409l-.253-.234q-.863-.8-1.712-1.584l-.009-.008-1.9-1.758-.6-.554L567.2,812.1l-3.557-3.3-.123-.114-2.348-2.177-2.215-2.055q-1.036-.961-2.064-1.916l-2.253-2.092-.13-.12-3.328-3.093-30.75,26.225-.088,97.153h-.011l-.033,25.2v42.377L581.16,942.73l.012-9.766h.021l.092-107.838-.374-.346Q576.751,820.939,572.936,817.409Z" fill="url(#c)"></path> <path d="M520.424,1175.668c11.469,10.593,20.812,19.254,29.978,27.774l30.75-26.225V1012.59l-60.728,45.359Z" fill="url(#d)"></path> <path d="M775.09,916.732h23.221v165.507H775.09ZM789.547,989.7h91.858v22.082H789.547Zm79.566-72.965h23.219v165.507H869.113Z" fill="#0d0f1a"></path> <path d="M963.021,1083.947s-3.869-2.05-11.61-6.148a41.073,41.073,0,0,1-17.7-18.041q-6.091-11.892-6.091-28.741V1017.7q0-17.527,5.862-29.937A41.931,41.931,0,0,1,950.5,968.866q11.152-6.488,26.863-6.488,14.794,0,25.269,7.4t15.993,21.4q5.522,14,5.52,33.58v7.74H944.468v-18.667h57.6q-1.026-14.455-7.455-22.483t-17.245-8.023q-13.206,0-20.432,8.651t-7.229,24.473v15.024q0,14.685,7.741,22.538t21.968,7.854a36.628,36.628,0,0,0,14-2.845,40.365,40.365,0,0,0,12.407-7.967l15.254,15.252a64.3,64.3,0,0,1-19.694,13.034,56.124,56.124,0,0,1-21.968,4.61Z" fill="#0d0f1a"></path> <path d="M1087.321,1083.947l-9.163-2.05a71.281,71.281,0,0,1-17.132-6.146,67.166,67.166,0,0,1-14.683-10.245l13.773-16.96a77.747,77.747,0,0,0,19.009,10.927,51.6,51.6,0,0,0,18.668,3.643q13.773,0,20.659-4.268t6.887-12.807q0-5.689-3.756-8.536a21.222,21.222,0,0,0-9.333-3.814q-5.578-.966-15.709-1.763-.914,0-1.935-.059t-1.936-.17a7.13,7.13,0,0,1-.911-.057,7.32,7.32,0,0,0-.91-.056,91.78,91.78,0,0,1-19.464-3.359,26.428,26.428,0,0,1-13.261-9.163q-5.294-6.716-5.293-19.237T1057.953,979a31.155,31.155,0,0,1,15.253-12.463q10.129-4.155,25.384-4.155a87.887,87.887,0,0,1,17.586,1.706,78.728,78.728,0,0,1,15.993,5.067,79.662,79.662,0,0,1,14.685,8.479l-14,16.962a77.957,77.957,0,0,0-17.473-8.537,53.254,53.254,0,0,0-16.789-2.847q-11.839,0-17.758,4.041t-5.918,12.123a8.224,8.224,0,0,0,3.358,7.172,19.625,19.625,0,0,0,8.48,3.187q5.121.8,14.57,1.366a8.61,8.61,0,0,0,1.423.113,10.867,10.867,0,0,1,1.536.114h.684a2.235,2.235,0,0,1,.682.113,100.831,100.831,0,0,1,21.114,3.3,28.481,28.481,0,0,1,14.629,9.9q5.916,7.4,5.917,21.4,0,12.75-5.464,21.116t-16.447,12.577q-10.986,4.211-27.6,4.213Z" fill="#0d0f1a"></path> <path d="M1182.026,1074.9q-10.815-9.048-10.812-27.489,0-17.529,9.9-26.294t29.938-8.766h33.579l1.593,18.669h-35.059q-9.107,0-13.6,4.039t-4.494,12.352q0,8.991,5.975,13.318t18.154,4.324q13.32,0,19.864-2.845t6.545-8.879l2.391,16.619a27.2,27.2,0,0,1-7.57,7.854,32.941,32.941,0,0,1-10.415,4.61,53,53,0,0,1-13.318,1.538Q1192.84,1083.947,1182.026,1074.9Zm61.581-67.556q0-11.613-6.2-18.043t-17.587-6.431a45.279,45.279,0,0,0-13.83,2.162,40.988,40.988,0,0,0-12.008,6.034l-16.961-11.611a44.328,44.328,0,0,1,17.7-12.577,63.9,63.9,0,0,1,24.417-4.5q14.682,0,25.155,5.179a35.968,35.968,0,0,1,15.936,15.025q5.465,9.848,5.464,23.733v75.924h-22.083Z" fill="#0d0f1a"></path> <path d="M1300.975,916.732H1324.2v165.507h-23.221Zm33.693,161.921a30.95,30.95,0,0,1-12.065-14.969l1.593-24.7a28.273,28.273,0,0,0,2.732,12.977,18.95,18.95,0,0,0,7.91,8.2,25.8,25.8,0,0,0,12.579,2.845q11.5,0,17.814-7t6.317-19.749v-25.611q0-12.977-6.317-20.148t-17.814-7.17a26.663,26.663,0,0,0-12.579,2.732,18.367,18.367,0,0,0-7.91,8.023,27.378,27.378,0,0,0-2.732,12.692l-2.39-22.765a41.019,41.019,0,0,1,14-15.993,34.5,34.5,0,0,1,19.238-5.634q12.519,0,21.456,5.634a35.374,35.374,0,0,1,13.6,16.448q4.665,10.815,4.666,26.066v25.726q0,15.026-4.78,25.726a35.533,35.533,0,0,1-14,16.333q-9.221,5.637-22.083,5.636A34.667,34.667,0,0,1,1334.668,1078.653Z" fill="#0d0f1a"></path> <path d="M1432.9,1074.9q-10.815-9.048-10.813-27.489,0-17.529,9.9-26.294t29.937-8.766h33.58l1.593,18.669h-35.059q-9.107,0-13.6,4.039t-4.495,12.352q0,8.991,5.976,13.318t18.154,4.324q13.319,0,19.864-2.845t6.544-8.879l2.392,16.619a27.2,27.2,0,0,1-7.57,7.854,32.946,32.946,0,0,1-10.416,4.61,53,53,0,0,1-13.317,1.538Q1443.715,1083.947,1432.9,1074.9Zm61.58-67.556q0-11.613-6.2-18.043t-17.588-6.431a45.272,45.272,0,0,0-13.829,2.162,40.988,40.988,0,0,0-12.008,6.034l-16.962-11.611a44.331,44.331,0,0,1,17.7-12.577,63.893,63.893,0,0,1,24.416-4.5q14.683,0,25.156,5.179a35.978,35.978,0,0,1,15.936,15.025q5.463,9.848,5.464,23.733v75.924h-22.084Z" fill="#0d0f1a"></path> <path d="M1542.746,964.084h53.271v20.945h-53.271Zm18.838,110.813q-6.657-7.911-6.658-23.393v-121.8h23.221v122.024a11.142,11.142,0,0,0,1.706,6.659,5.813,5.813,0,0,0,5.01,2.334h11.154v22.082h-13.432Q1568.245,1082.808,1561.584,1074.9Z" fill="#0d0f1a"></path> </g> </svg> 