<?xml version="1.0" encoding="UTF-8"?> <svg xmlns="http://www.w3.org/2000/svg" width="56" height="56" viewBox="0 0 56 56" fill="none"> <circle cx="28" cy="28" r="28" fill="#CEEAD4"></circle> <path fill-rule="evenodd" clip-rule="evenodd" d="M24.4134 33.1216H30.6972C31.1708 33.1216 31.5635 32.725 31.5635 32.2466C31.5635 31.7683 31.1708 31.3833 30.6972 31.3833H24.4134C23.9398 31.3833 23.547 31.7683 23.547 32.2466C23.547 32.725 23.9398 33.1216 24.4134 33.1216ZM28.3176 25.55H24.4134C23.9398 25.55 23.547 25.9466 23.547 26.425C23.547 26.9033 23.9398 27.2883 24.4134 27.2883H28.3176C28.7912 27.2883 29.184 26.9033 29.184 26.425C29.184 25.9466 28.7912 25.55 28.3176 25.55ZM36.561 24.5298C36.8325 24.5267 37.1282 24.5233 37.3968 24.5233C37.6856 24.5233 37.9166 24.7566 37.9166 25.0483V34.4283C37.9166 37.3216 35.5948 39.6666 32.7301 39.6666H23.5354C20.5321 39.6666 18.0833 37.2049 18.0833 34.1716V21.5949C18.0833 18.7016 20.4166 16.3333 23.2928 16.3333H29.4611C29.7615 16.3333 29.9925 16.5783 29.9925 16.8699V20.6266C29.9925 22.7616 31.7367 24.5116 33.8506 24.5233C34.3443 24.5233 34.7796 24.5269 35.1606 24.5302C35.4569 24.5327 35.7204 24.5349 35.9529 24.5349C36.1173 24.5349 36.3305 24.5325 36.561 24.5298ZM36.8795 22.827C35.93 22.8305 34.8107 22.827 34.0055 22.8188C32.728 22.8188 31.6757 21.756 31.6757 20.4656V17.3903C31.6757 16.8875 32.2798 16.6378 32.6252 17.0006C33.2504 17.6572 34.1096 18.5598 34.9649 19.4583C35.8177 20.3541 36.6666 21.2459 37.2757 21.8855C37.613 22.239 37.3658 22.8258 36.8795 22.827Z" fill="#089726"></path> </svg> 