<?xml version="1.0" encoding="UTF-8"?> <svg xmlns="http://www.w3.org/2000/svg" width="405" height="131" viewBox="0 0 405 131" fill="none"> <path d="M209.89 41.7285C209.679 59.9123 226.1 70.0497 238.481 76.0959C251.194 82.2831 255.46 86.2534 255.415 91.7806C255.319 100.26 245.27 103.994 235.871 104.14C219.456 104.392 209.926 99.7011 202.34 96.1641L196.426 123.83C204.047 127.332 218.126 130.385 232.733 130.536C267.036 130.536 289.465 113.597 289.576 87.3417C289.722 54.0173 243.513 52.1833 243.835 37.2947C243.936 32.7651 248.247 27.9534 257.687 26.719C262.356 26.1143 275.256 25.6357 289.873 32.3671L295.611 5.59773C287.743 2.74092 277.644 0 265.061 0C232.794 0 210.072 17.161 209.89 41.7285ZM350.771 2.31265C344.505 2.31265 339.216 5.95042 336.874 11.5683L287.879 128.561H322.156L328.966 109.697H370.854L374.798 128.561H405L378.636 2.31265H350.771ZM355.556 36.423L365.449 83.8249H338.365L355.556 36.423ZM168.35 2.31265L141.341 128.561H173.996L200.995 2.31265H168.35ZM120.045 2.31265L86.0598 88.2386L72.3138 15.1809C70.7019 7.01858 64.3351 2.31265 57.258 2.31265H1.68946L0.923828 5.97058C12.3277 8.4495 25.288 12.45 33.1357 16.7126C37.941 19.3225 39.3111 21.5999 40.8927 27.8022L66.9292 128.561H101.438L154.337 2.31265H120.045Z" fill="url(#paint0_linear_5013_1404)"></path> <path fill-rule="evenodd" clip-rule="evenodd" d="M209.89 41.7285C209.679 59.9123 226.1 70.0497 238.481 76.0959C251.194 82.2831 255.46 86.2534 255.415 91.7806C255.319 100.26 245.27 103.994 235.871 104.14C219.456 104.392 209.926 99.7011 202.34 96.1641L196.426 123.83C204.047 127.332 218.126 130.385 232.733 130.536C267.036 130.536 289.465 113.597 289.576 87.3417C289.722 54.0173 243.513 52.1833 243.835 37.2947C243.936 32.7651 248.247 27.9534 257.687 26.719C262.356 26.1143 275.256 25.6357 289.873 32.3671L295.611 5.59773C287.743 2.74092 277.644 0 265.061 0C232.794 0 210.072 17.161 209.89 41.7285ZM350.771 2.31265C344.505 2.31265 339.216 5.95042 336.874 11.5683L287.879 128.561H322.156L328.966 109.697H370.854L374.798 128.561H405L378.636 2.31265H350.771ZM355.556 36.423L365.449 83.8249H338.365L355.556 36.423ZM168.35 2.31265L141.341 128.561H173.996L200.995 2.31265H168.35ZM120.045 2.31265L86.0598 88.2386L72.3138 15.1809C70.7019 7.01858 64.3351 2.31265 57.258 2.31265H1.68946L0.923828 5.97058C12.3277 8.4495 25.288 12.45 33.1357 16.7126C37.941 19.3225 39.3111 21.5999 40.8927 27.8022L66.9292 128.561H101.438L154.337 2.31265H120.045Z" fill="url(#paint1_linear_5013_1404)"></path> <defs> <linearGradient id="paint0_linear_5013_1404" x1="0.924709" y1="65.268" x2="405" y2="65.268" gradientUnits="userSpaceOnUse"> <stop stop-color="#1D1C45"></stop> <stop offset="1" stop-color="#174489"></stop> </linearGradient> <linearGradient id="paint1_linear_5013_1404" x1="0.924709" y1="65.268" x2="405" y2="65.268" gradientUnits="userSpaceOnUse"> <stop stop-color="#1D1C45"></stop> <stop offset="1" stop-color="#174489"></stop> </linearGradient> </defs> </svg> 