<?xml version="1.0" encoding="UTF-8"?> <svg xmlns="http://www.w3.org/2000/svg" width="64" height="64" viewBox="0 0 64 64" fill="none"> <path d="M54.124 10.727L46.294 2.881C45.7298 2.31883 44.9665 2.0022 44.17 2H12C11.2044 2 10.4413 2.31607 9.87868 2.87868C9.31607 3.44129 9 4.20435 9 5V59C9 59.7956 9.31607 60.5587 9.87868 61.1213C10.4413 61.6839 11.2044 62 12 62H52C52.7956 62 53.5587 61.6839 54.1213 61.1213C54.6839 60.5587 55 59.7956 55 59V12.846C55.0009 12.4525 54.9239 12.0627 54.7736 11.699C54.6232 11.3354 54.4025 11.005 54.124 10.727V10.727ZM53 59C53 59.2652 52.8946 59.5196 52.7071 59.7071C52.5196 59.8946 52.2652 60 52 60H12C11.7348 60 11.4804 59.8946 11.2929 59.7071C11.1054 59.5196 11 59.2652 11 59V5C11 4.73478 11.1054 4.48043 11.2929 4.29289C11.4804 4.10536 11.7348 4 12 4H44V11C44 11.7956 44.3161 12.5587 44.8787 13.1213C45.4413 13.6839 46.2044 14 47 14H51V12H47C46.7348 12 46.4804 11.8946 46.2929 11.7071C46.1054 11.5196 46 11.2652 46 11V5.418L52.708 12.139C52.8952 12.3267 53.0002 12.5809 53 12.846V59Z" fill="#488830"></path> <path d="M17 8H15V10H17V8Z" fill="#488830"></path> <path d="M39 8H19V10H39V8Z" fill="#488830"></path> <path d="M39 12H15V14H39V12Z" fill="#488830"></path> <path d="M40.352 22.063L32.352 19.063C32.1261 18.98 31.878 18.98 31.652 19.063L23.652 22.063C23.4607 22.134 23.2958 22.2618 23.1792 22.4293C23.0627 22.5968 23.0001 22.7959 23 23V34.292C22.9956 35.5928 23.3557 36.8689 24.0396 37.9755C24.7234 39.0822 25.7036 39.9751 26.869 40.553L31.553 42.9C31.6918 42.9693 31.8449 43.0055 32 43.0055C32.1552 43.0055 32.3082 42.9693 32.447 42.9L37.131 40.558C38.2972 39.9797 39.278 39.086 39.9619 37.9784C40.6457 36.8708 41.0054 35.5937 41 34.292V23C41.0002 22.7964 40.9383 22.5976 40.8225 22.4302C40.7067 22.2628 40.5426 22.1346 40.352 22.063ZM39 34.292C39.0032 35.2212 38.746 36.1327 38.2574 36.9232C37.7689 37.7136 37.0686 38.3513 36.236 38.764L32 40.882L27.764 38.764C26.9315 38.3513 26.2312 37.7136 25.7426 36.9232C25.2541 36.1327 24.9968 35.2212 25 34.292V23.692L32 21.067L39 23.692V34.292Z" fill="#488830"></path> <path d="M27.879 30.464L26.465 31.878L29.293 34.707C29.4805 34.8945 29.7348 34.9998 30 34.9998C30.2651 34.9998 30.5194 34.8945 30.707 34.707L37.778 27.636L36.364 26.222L30 32.586L27.879 30.464Z" fill="#488830"></path> </svg> 