<?xml version="1.0" encoding="UTF-8"?> <svg xmlns="http://www.w3.org/2000/svg" xmlns:xlink="http://www.w3.org/1999/xlink" id="Layer_1" data-name="Layer 1" viewBox="0 0 61 61"> <defs> <mask id="mask" x="25.61067" y="42.6278" width="3.84131" height="4.32859" maskUnits="userSpaceOnUse"> <g transform="translate(-1 -1)"> <g id="mask-3"> <path id="path-2" d="M26.61131,44.02332c.02283.91165.00689,1.824.00626,2.73636-.00076.5632-.00076.5632.54975.53468.21359.0384.40833.04623.41194-.26126l.00028-.00014.00432-.23061-.00035-.00022c-.00063-.07033-.00139-.13994-.00278-.21027.07655-.40391-.08143-.80356-.0007-1.216.0515-.26027.12743-.24889.27414-.10951a11.35167,11.35167,0,0,1,.973.86542,12.83939,12.83939,0,0,1,1.25066,1.65689c.0689.1174.14894.1841.27491.16426.13773-.02133.09187-.14584.09187-.2304.00208-1.23235-.0014-2.464,0-3.69635,0-.19342-.07378-.32142-.26928-.34062a1.47369,1.47369,0,0,0-.18512-.00214,1.38914,1.38914,0,0,1-.197-.00355c-.197-.02134-.26238.05262-.25542.25671.01391.40178.002.805.00417,1.20818,0,.10169-.0167.19271-.11831.23111-.09744.03626-.12744-.05618-.18715-.10951a10.68215,10.68215,0,0,0-2.15619-1.546.6679.6679,0,0,0-.28312-.09259c-.15318,0-.19222.14557-.18589.39552" style="fill:#fff"></path> </g> </g> </mask> <linearGradient id="linear-gradient" x1="-360.06774" y1="432.18488" x2="-349.0859" y2="432.12539" gradientTransform="matrix(3.84131, 0, 0, -4.32859, 1394.34264, 1916.43612)" gradientUnits="userSpaceOnUse"> <stop offset="0" stop-color="#eb49af"></stop> <stop offset="1" stop-color="#5e49f6"></stop> </linearGradient> <mask id="mask-2" x="40.99998" y="42.67125" width="3.91837" height="3.65089" maskUnits="userSpaceOnUse"> <g transform="translate(-1 -1)"> <g id="mask-6"> <path id="path-5" d="M45.47351,43.67879a.47157.47157,0,0,1-.07538.0074c-.48634-.007-.97283-.00327-1.45931-.00327-.498,0-.99719.02176-1.49369-.00712-.37179-.02161-.37116.1957-.37889.46336-.00849.293.05415.4815.396.46742.23085-.0096.46219-.00754.6936-.00555.151.00128.30192.00256.45287.00064.202-.00263.23775.05618.14929.25166a2.2739,2.2739,0,0,1-.3.38194c-.405.56391-.827,1.115-1.24147,1.67189-.07913.10624-.27588.17444-.19905.334.04775.09927.1488.08512.24944.071a.58728.58728,0,0,1,.12813-.009c.06354.00555.12966-.03989.19633-.04971a8.70673,8.70673,0,0,1,2.78013.00989c.23663.04153.44354.10531.51905-.19826.0989-.39822-.07308-.70059-.40178-.75349a5.609,5.609,0,0,0-1.03032-.07517c-.11838.00292-.27706.07225-.35306-.05233-.09981-.16342.08456-.27.13641-.40427.01586-.04117.06034-.07005.08832-.10724.41841-.555.83787-1.10912,1.252-1.66734.05261-.0709.13564-.152.09131-.25308a.1231.1231,0,0,0-.12493-.08086.51527.51527,0,0,0-.075.00754" style="fill:#fff"></path> </g> </g> </mask> <linearGradient id="linear-gradient-2" x1="-366.11732" y1="413.77493" x2="-355.35146" y2="413.7044" gradientTransform="matrix(3.91837, 0, 0, -3.65089, 1445.79692, 1555.94238)" xlink:href="#linear-gradient"></linearGradient> <mask id="mask-3-2" x="16.84352" y="42.5392" width="3.8251" height="3.91452" maskUnits="userSpaceOnUse"> <g transform="translate(-1 -1)"> <g id="mask-9"> <path id="path-8" d="M18.09743,43.97717c-.31395.14713-.33052.236-.08421.47353q.86544.8352,1.7441,1.65547a.27271.27271,0,0,1,.10439.24462c-.01259.11108-.07857.10574-.14392.10055a.2626.2626,0,0,0-.07176.00043,1.16785,1.16785,0,0,1-.46115-.02524,1.259,1.259,0,0,0-.42628-.03158,1.0516,1.0516,0,0,1-.26656-.04131c-.23941-.101-.33476.01422-.37366.23466-.243.41956-.17963.65778.22187.71047a4.72347,4.72347,0,0,0,1.83117.08889,3.65349,3.65349,0,0,0,1.28268-.42176c.27421-.19271.28117-.29155.04593-.51057q-.81429-.7552-1.61813-1.52107c-.094-.08967-.28528-.18133-.20385-.32782.07231-.13014.27692-.10738.42788-.133a.12071.12071,0,0,1,.0657.01863.134.134,0,0,0,.06319.01906,1.11876,1.11876,0,0,1,.33282.04778.67887.67887,0,0,0,.56359-.02574c.18228-.15218.08832-.396.18506-.57671.02026-.14649-.01183-.23538-.18025-.27662a4.698,4.698,0,0,0-1.12657-.14066,4.44827,4.44827,0,0,0-1.912.438" style="fill:#fff"></path> </g> </g> </mask> <linearGradient id="linear-gradient-3" x1="-357.31797" y1="421.66587" x2="-346.2896" y2="421.6001" gradientTransform="matrix(3.8251, 0, 0, -3.91452, 1377.98929, 1696.06195)" xlink:href="#linear-gradient"></linearGradient> <mask id="mask-4" x="12.47616" y="42.56267" width="4.10027" height="3.79418" maskUnits="userSpaceOnUse"> <g transform="translate(-1 -1)"> <g id="mask-12"> <path id="path-11" d="M15.40806,43.59211a2.61005,2.61005,0,0,0-1.207,1.00138,4.42236,4.42236,0,0,0-.69326,2.12743c-.01782.19513-.09131.40512.0744.51677a.87475.87475,0,0,0,.67572.08021c.30226-.06969.13613-.34965.1735-.53973a3.14389,3.14389,0,0,1,.897-2.05931c.143-.13234.23545-.13838.37575-.0005a2.23761,2.23761,0,0,1,.6648.96505,3.68751,3.68751,0,0,1,.22765,1.19282c-.01086.23125.03772.4618.31757.47488.62115.02894.65964-.02979.66228-.69376a1.83249,1.83249,0,0,0-.08122-.4443,3.75111,3.75111,0,0,0-1.47135-2.43271.90779.90779,0,0,0-.4679-.21767.39363.39363,0,0,0-.14789.02944" style="fill:#fff"></path> </g> </g> </mask> <linearGradient id="linear-gradient-4" x1="-363.68088" y1="418.17531" x2="-353.39263" y2="418.10745" gradientTransform="matrix(4.10027, 0, 0, -3.79418, 1502.40443, 1632.06765)" xlink:href="#linear-gradient"></linearGradient> <mask id="mask-5" x="21.06762" y="42.54581" width="4.12276" height="3.76924" maskUnits="userSpaceOnUse"> <g transform="translate(-1 -1)"> <g id="mask-15"> <path id="path-14" d="M23.98444,43.57632a2.74941,2.74941,0,0,0-1.05795.80967,4.33281,4.33281,0,0,0-.84038,2.35826c-.03974.5669-.06034.5654.43317.56533.4672-.00007.45161-.00121.485-.47673a3.391,3.391,0,0,1,.66312-1.87406c.33274-.43306.57432-.39971.91221.0443a3.56727,3.56727,0,0,1,.636,1.98187c.01768.24213.07885.35065.32342.3269a1.63065,1.63065,0,0,1,.20176-.00277,1.52,1.52,0,0,0,.21463-.00413.233.233,0,0,0,.2248-.31687,2.21627,2.21627,0,0,1-.04649-.24071A3.7822,3.7822,0,0,0,24.547,43.7403a.86554.86554,0,0,0-.42976-.19449.30145.30145,0,0,0-.13279.03051" style="fill:#fff"></path> </g> </g> </mask> <linearGradient id="linear-gradient-5" x1="-366.33367" y1="417.43899" x2="-356.10154" y2="417.37068" gradientTransform="matrix(4.12276, 0, 0, -3.76924, 1521.51989, 1618.78271)" xlink:href="#linear-gradient"></linearGradient> <mask id="mask-6-2" x="32.43087" y="42.67445" width="0.84881" height="3.6379" maskUnits="userSpaceOnUse"> <g transform="translate(-1 -1)"> <g id="mask-18"> <path id="path-17" d="M33.90926,43.68057a.94737.94737,0,0,1-.14094.001c-.17225-.00711-.33894-.01429-.33427.30742q.02191,1.50474-.00306,3.00992c-.00543.33749.1886.31829.40526.31011.03354-.00128.068-.00028.10231.00071.17977.00505.35251.01017.34053-.30691-.01872-.495-.00466-.99129-.00466-1.48708h-.00257c0-.50759-.012-1.01568.00459-1.52263.00814-.249-.09674-.31865-.26844-.31865a.91032.91032,0,0,0-.09875.00612" style="fill:#fff"></path> </g> </g> </mask> <linearGradient id="linear-gradient-6" x1="12.41745" y1="413.33805" x2="62.11605" y2="413.26728" gradientTransform="matrix(0.84881, 0, 0, -3.6379, 0.67357, 1549.03909)" xlink:href="#linear-gradient"></linearGradient> <mask id="mask-7" x="32.30786" y="41.18517" width="1.10265" height="1.06718" maskUnits="userSpaceOnUse"> <g transform="translate(-1 -1)"> <g id="mask-21"> <path id="path-20" d="M33.85706,42.18517a.48687.48687,0,0,0-.549.48107c-.00835.21909.35007.59684.55573.58588a.73634.73634,0,0,0,.54654-.5686.55087.55087,0,0,0-.55134-.49835h-.00188" style="fill:#fff"></path> </g> </g> </mask> <linearGradient id="linear-gradient-7" x1="-98.05393" y1="128.69978" x2="-59.79653" y2="128.45851" gradientTransform="matrix(1.10265, 0, 0, -1.06718, 119.34926, 179.92698)" xlink:href="#linear-gradient"></linearGradient> <mask id="mask-8" x="45.31036" y="42.57461" width="4.17135" height="3.73717" maskUnits="userSpaceOnUse"> <g transform="translate(-1 -1)"> <g id="mask-24"> <path id="path-23" d="M47.3568,44.25984a4.60218,4.60218,0,0,0-1.04263,2.78663c-.01434.11435.00807.23872.1323.251a5.963,5.963,0,0,0,.67405.00953.15489.15489,0,0,0,.16439-.184,2.93355,2.93355,0,0,1,.07676-.59143,2.64989,2.64989,0,0,1,.71337-1.69821c.28535-.298.38836-.30044.6712.02155a2.91753,2.91753,0,0,1,.71184,1.87847l-.00007.00007c-.03014.56228-.01629.57707.535.56846.04579-.00078.09145-.00391.13718-.006.37032-.00925.42015-.11037.27845-.56413l-.002-.13824-.06764-.20885.00188-.14009a.69938.69938,0,0,0-.12083-.502h.00007l-.04809-.14614.00007-.00007a2.68452,2.68452,0,0,0-.63312-1.22048,2.85012,2.85012,0,0,0-.33462-.33649,1.28618,1.28618,0,0,0-.81916-.46479c-.30456-.00007-.59742.23894-1.02844.68523" style="fill:#fff"></path> </g> </g> </mask> <linearGradient id="linear-gradient-8" x1="-373.32946" y1="416.49892" x2="-363.21652" y2="416.43002" gradientTransform="matrix(4.17135, 0, 0, -3.73717, 1568.50261, 1601.74651)" xlink:href="#linear-gradient"></linearGradient> <mask id="mask-9-2" x="34.04215" y="42.54432" width="6.40506" height="3.78729" maskUnits="userSpaceOnUse"> <g transform="translate(-1 -1)"> <g id="mask-27"> <path id="path-26" d="M36.9281,43.56871a4.1419,4.1419,0,0,0-.9935.81174,4.59331,4.59331,0,0,0-.85375,2.28586c-.07969.623-.08943.65878.5082.63.4434.02488.4434.02488.41062-.5637a4.19354,4.19354,0,0,1,.09626-.51129A2.66671,2.66671,0,0,1,36.87,44.73991c.06138-.0576.11768-.14457.23335-.12274a.88508.88508,0,0,1,.53347.905,12.19277,12.19277,0,0,0-.3,1.49711c-.02317.11825-.0087.2688.13871.27889a1.44177,1.44177,0,0,0,.75151-.03342c.17524-.08882.05686-.32569.08491-.49408.02269-.1371.0428-.2747.07029-.41074a3.04978,3.04978,0,0,1,.80426-1.62759c.15326-.15246.28793-.15225.41425-.01991a2.81375,2.81375,0,0,1,.86551,1.966c.00466.6442-.12062.63595.64843.62969.03473-.00028.06946-.00121.10412-.00071.18854.00291.24206-.10112.20865-.27435l.00835-.14528c.04573-.20288-.05957-.38706-.06939-.583H41.3663l.00007-.00007-.00362-.21148a2.355,2.355,0,0,1-.12388-.325,3.18038,3.18038,0,0,0-1.3577-2.00718.66362.66362,0,0,0-.92125-.00313c-.16718.15474-.38286.25842-.53625.4241-.16362.17664-.25326.11912-.3839-.02538a1.94971,1.94971,0,0,0-.88576-.57024.562.562,0,0,0-.15109-.042.12567.12567,0,0,0-.07482.02439" style="fill:#fff"></path> </g> </g> </mask> <linearGradient id="linear-gradient-9" x1="-404.58577" y1="418.00466" x2="-397.99963" y2="417.93667" gradientTransform="matrix(6.40506, 0, 0, -3.78729, 2602.60992, 1628.38303)" xlink:href="#linear-gradient"></linearGradient> <mask id="mask-10" x="12" y="15.07111" width="37.95795" height="24.11768" maskUnits="userSpaceOnUse"> <g transform="translate(-1 -1)"> <g id="mask-30"> <path id="path-29" d="M38.10443,16.07872c-.34131.00427-.68275.0086-1.02447.00732-4.39986-.01713-8.79978-.00931-13.19978-.00931-2.4011,0-4.8022-.005-7.20253.005a5.58259,5.58259,0,0,0-1.09755.11306A3.24659,3.24659,0,0,0,13,19.32188V19.341a3.14517,3.14517,0,0,0,.02234.36452q.001,2.09812.00285,4.19555.00105,1.99041.0014,3.98144.00093,2.27639.00132,4.5519,0,2.48853.00069,4.97706a3.23388,3.23388,0,0,0,3.29828,2.76765q3.29462-.00661,6.58917.00391c4.80408.009,9.60788.01821,14.41175-.06293,1.25128-.02126,2.50549-.04978,3.75469.01a4.54159,4.54159,0,0,0,1.93062-.33,5.72636,5.72636,0,0,0,2.31062-1.74656c.04113-.01487.09542-.01842.12249-.04758.83454-.89031,1.68919-1.75929,2.54378-2.629a5.59147,5.59147,0,0,0,.87831-.953,5.40366,5.40366,0,0,0,1.46641-1.76839,5.25744,5.25744,0,0,0,.60209-2.92344q0-2.52373.00132-5.04818.00219-2.48961.00285-4.97849a3.17462,3.17462,0,0,0-.65978-2.27911,3.45381,3.45381,0,0,0-2.9182-1.34614c-1.16513-.01422-2.33088.00356-3.49663.00356q-.51353-.00021-1.02718.00021c-1.18127.00057-2.36275.00114-3.54389-.01159q-.146-.00138-.292-.00135c-.29968,0-.59923.00377-.89884.00761M27.76655,38.82162a13.4521,13.4521,0,0,1-3.60241-.64356,17.96955,17.96955,0,0,1-2.64532-1.06169c-.055-.01422-.10788-.03129-.16014-.05049a4.511,4.511,0,0,1-1.02719-.65493,13.2013,13.2013,0,0,1-3.55021-3.88551.608.608,0,0,1-.128-.283.24522.24522,0,0,1,.00063-.0384,2.86943,2.86943,0,0,0-.37513-.77718,9.94,9.94,0,0,1-1.04326-3.23918,2.77134,2.77134,0,0,0-.07162-.30514l.002-.03477c.01462-.37618-.096-.74453-.06257-1.12284a10.98537,10.98537,0,0,1,.47048-2.72427l.00967-.02916a9.93216,9.93216,0,0,1,2.38308-4.03271,1.31357,1.31357,0,0,0,.10161-.123l.03132-.03911a8.65693,8.65693,0,0,1,1.84641-1.35609,7.94542,7.94542,0,0,1,2.84164-.92722,9.89416,9.89416,0,0,1,1.614-.13945,9.35844,9.35844,0,0,1,5.19194,1.65405,9.56834,9.56834,0,0,0,1.028.76871c.02638.01351.05081.02837.07579.04338h.0007a4.11905,4.11905,0,0,1,.85959.83626,12.686,12.686,0,0,1,1.57283,2.20232c.05567.09457.08073.25457.2234.23473.12117-.01713.11066-.16505.14-.26247a7.43439,7.43439,0,0,1,.98125-1.90578c.23113-.3584.34806-.77084.58121-1.12284v-.00071l.01733-.02631c.22758-.48782-.04239-.89814-.22473-1.30418a1.48938,1.48938,0,0,0-.61246-.74738c-.087-.04764-.22271-.12942-.16153-.27449.04879-.11733.17684-.10176.27776-.09031a2.96372,2.96372,0,0,0,.8518.02631c.18659-.03129.38076.14365.52065.31147a2.405,2.405,0,0,1,.47389,2.15111.15534.15534,0,0,1,.0174.02909v.00078l.00077.00071c.07655.14222-.00279.27378-.04664.40611a7.653,7.653,0,0,1-.88186,1.558,11.21152,11.21152,0,0,0-.69945,1.36818l-.0048.01137c-.00487.01487-.00982.02987-.01392.04487a3.97766,3.97766,0,0,0-.0348,2.09344c.04656.20338.18235.47574-.05436.62223-.23732.14649-.43706-.08178-.62073-.20907a4.27924,4.27924,0,0,1-1.13513-1.28213c-.35007-.55119-.66047-1.12719-1.03567-1.66116l-.01107-.01635-.023-.03627a10.41166,10.41166,0,0,0-2.33637-2.59627,7.55316,7.55316,0,0,0-4.60245-1.664,8.276,8.276,0,0,0-3.31693.45227,7.51516,7.51516,0,0,0-3.63652,2.95609A9.46573,9.46573,0,0,0,16.72,23.99353l-.01461.04124-.00968.0256a8.04042,8.04042,0,0,0-.5004,2.64455,7.61739,7.61739,0,0,0,.3681,2.51385c.00626.02055.0126.03983.01956.06045v.00071l.00835.0256a11.77733,11.77733,0,0,0,2.3489,4.1856,2.80193,2.80193,0,0,1,.52754.6848c.0062.0128.01177.0256.01678.03911A10.61428,10.61428,0,0,0,21.90578,36.123a11.22878,11.22878,0,0,0,2.60077,1.09938,14.73928,14.73928,0,0,0,5.0744.60579,16.84666,16.84666,0,0,0,2.1811-.29368,16.24192,16.24192,0,0,1,4.52736-.54543,6.25787,6.25787,0,0,1,2.64886.91741c.09813.059.18235.14862.30832.14578l.01176-.00285-.002.01138v.00071a4.73156,4.73156,0,0,0,.72652.49849c.08428.05333.19077.12018.16773.246-.02053.11079-.09214.103-.16362.09529a.25485.25485,0,0,0-.09312.00079.11372.11372,0,0,1-.03654.00106.1286.1286,0,0,0-.03306.00021,4.75707,4.75707,0,0,1-2.75326-.67477,4.19176,4.19176,0,0,0-2.175-.20842c-1.22762.15153-2.43033.44451-3.65169.62869a18.11434,18.11434,0,0,1-2.71693.1824q-.38031,0-.76083-.0096M17.05688,18.24917a1.166,1.166,0,0,0-.08978-.44444c-.13843-.347-.06883-.44516.291-.44871.12736-.00078.254,0,.38132.00071.16147,0,.3237-.00071.48516.00071.0689.00071.14539,0,.16564.08889a.14575.14575,0,0,1-.0634.1536,10.54319,10.54319,0,0,0-.9507.758.18506.18506,0,0,1-.11908.06109c-.05971,0-.10015-.05917-.10015-.16989m25.0237-.30506a10.252,10.252,0,0,1,4.19879-.50489,6.3954,6.3954,0,0,1,2.96894.82922,1.4853,1.4853,0,0,1,.43993,1.16971c-.05506.17493-.17539.13369-.27631.07609-.19139-.10951-.3738-.23467-.55747-.35769a4.8051,4.8051,0,0,0-2.28209-.73671,13.23177,13.23177,0,0,0-1.33278-.08818,8.82931,8.82931,0,0,0-1.80055.202,6.77581,6.77581,0,0,0-1.51506.48355.306.306,0,0,1-.32578-.03911,5.14326,5.14326,0,0,0-2.14916-.69042c-.57348-.08113-.83509.20331-.71545.78429a.819.819,0,0,1,.01948.27875c-.05567.37832.02165.47005.435.48854.05783.01564.11622.02922.17468.04195h.00077c.254.0576.51077.09885.76278.1728a4.11531,4.11531,0,0,1,1.55264.81344c.14414.1231.29927.17863.43714.05625a4.38779,4.38779,0,0,1,2.48664-1.03111c.126-.01493.25194-.02773.37721-.03627h.00355a6.53588,6.53588,0,0,1,1.02169-.00142h.00132a4.3152,4.3152,0,0,1,2.62659,1.09369,2.89973,2.89973,0,0,1,.98759,2.21717,7.272,7.272,0,0,1-.05213,1.492v.00071l-.00487.02489a3.651,3.651,0,0,1-1.43169,2.299,5.43759,5.43759,0,0,1-2.03014.85547c-.31173.06755-.6222.16711-.65971.5952a1.56167,1.56167,0,0,1-.1914.44792c-.00215.01352-.00424.02781-.007.04132a2.82887,2.82887,0,0,1-.57765,1.10364,11.735,11.735,0,0,1-1.29659,1.61352.5066.5066,0,0,0-.12458.16782.114.114,0,0,0,.0112.13162c.03752.03976.08206.02482.12737.007a5.88233,5.88233,0,0,0,2.55623-1.70524,3.76316,3.76316,0,0,0,.387-.50062,1.40919,1.40919,0,0,1,1.16992-.68338h.00982c.10293-.01422.208-.02347.31318-.03271a4.62907,4.62907,0,0,0,1.47129-.82916c.09945-.08256.20531-.20053.32919-.14649.14469.06258.05073.231.07162.35129.00981.05689-.00836.12018.00285.17707.09117.44508-.14476.67556-.50667.83769a.78612.78612,0,0,0-.2875.17422.30459.30459,0,0,0-.04664.06613,10.44786,10.44786,0,0,0-1.50747.55325c-.26168.13938-.40018.50418-.62213.73891A6.95132,6.95132,0,0,1,43.897,32.812a9.85619,9.85619,0,0,1-2.6474.54257c-.02805.00178-.05617.00121-.084.00064-.01852-.00049-.037-.00085-.05526-.00064-.14052.0037-.30693-.03264-.36045-.13937-.0508-.10091.11477-.182.19209-.26382A14.73364,14.73364,0,0,0,41.96853,31.862c.00278-.01784.00619-.03562.01044-.05269a1.0178,1.0178,0,0,1,.20246-.38115A26.03075,26.03075,0,0,0,44.22417,28.31l.0174-.03065.02575-.04544a10.36607,10.36607,0,0,0,.51084-1.23946c.1037-.34205.25125-.45085.56513-.34987a2.77457,2.77457,0,0,0,3.30022-2.71787v-.04693a2.45652,2.45652,0,0,0-1.291-2.56427,4.421,4.421,0,0,0-3.96356.00072,2.12358,2.12358,0,0,0-.93747.87111c-.21652.38542-.467.39324-.76974.05681a4.34353,4.34353,0,0,0-2.56333-1.37877,3.48207,3.48207,0,0,0-1.23876-.10091c-.27421.049-.40512-.13589-.3452-.42247a1.29662,1.29662,0,0,1,.14546-.4416.50165.50165,0,0,1,.03758-.05262,1.12673,1.12673,0,0,0,.009-.79431c-.11755-.37412-.064-.80284-.36393-1.12-.11977-.12658-.02227-.22827.10161-.261A6.42038,6.42038,0,0,1,39.93,17.457a5.4596,5.4596,0,0,1,1.81446.5184.23318.23318,0,0,0,.10927.02552.68131.68131,0,0,0,.22689-.05681m-9.44224,1.83253-.00424-.00142.00216-.00142a8.4415,8.4415,0,0,0-2.37535-2.12616c-.06681-.04131-.17887-.04771-.15381-.153.02011-.082.09173-.07552.15757-.069a.51615.51615,0,0,0,.05324.00355c.23879-.0022.47785-.00163.71706-.00114q.21526.00054.43066.00043a1.01481,1.01481,0,0,1,.39949.1088A4.52678,4.52678,0,0,1,33.296,18.70713a1.26314,1.26314,0,0,1,.26168.92871l-.01461.04622v.00071c-.07378.2368-.165.50631-.39949.54685a.2515.2515,0,0,1-.0428.00384c-.21756,0-.30275-.309-.46248-.45682M14.35025,22.38428c-.12033-.03484-.07586-.15644-.07586-.2432-.00417-.80568-.00417-1.61137-.00557-2.41635v-.02141a2.30276,2.30276,0,0,1,.68832-1.87591c.14553-.12935.25194-.17344.3104.06976a4.15069,4.15069,0,0,1,.05088,1.80836l-.0007.0128a7.096,7.096,0,0,1-.577,2.07011c-.048.14429-.10579.28509-.167.42376-.03612.08362-.08.17948-.175.17948a.17509.17509,0,0,1-.04844-.0074m14.45392,13.7984a13.15648,13.15648,0,0,1-7.21993-2.119c-.04454-.02134-.08839-.04352-.13084-.06692a6.48266,6.48266,0,0,1-1.6711-1.41156,8.85323,8.85323,0,0,1-1.76846-2.86585c-.05143-.135-.064-.27726-.10363-.41379l-.009-.03129-.00279-.00711a4.62261,4.62261,0,0,1-.3223-1.76221,8.1006,8.1006,0,0,1,.21164-2.28757,9.07277,9.07277,0,0,1,.41341-1.1392l.01044-.02275.00765-.01707a6.64246,6.64246,0,0,1,2.70594-3.25973,5.58514,5.58514,0,0,1,2.62026-.74454,7.46938,7.46938,0,0,1,2.91062.38116,8.125,8.125,0,0,1,3.4541,2.36586c.01246.01565.02575.032.03828.04836.01176.015.02429.02987.03542.0448v.00071a14.22514,14.22514,0,0,1,1.1359,1.68029,6.14925,6.14925,0,0,0,2.84784,2.7158,5.01949,5.01949,0,0,0,4.97967-.43172,2.23662,2.23662,0,0,0,.80739-2.56988,1.48917,1.48917,0,0,0-2.43172-.41742.97009.97009,0,0,0-.15033.93938.46391.46391,0,0,0,.8463.14435,1.0928,1.0928,0,0,0,.09883-.14649c.096-.16071.2122-.28871.41967-.2432a.48651.48651,0,0,1,.36044.39254.97452.97452,0,0,1-.44047,1.16622,1.61431,1.61431,0,0,1-2.29678-.52409,2.47936,2.47936,0,0,1-.03132-2.09209.49409.49409,0,0,1,.09124-.13938.43738.43738,0,0,1,.11686-.0896,2.26765,2.26765,0,0,1,2.05381-.99634,2.77946,2.77946,0,0,1,2.05457.99634.74924.74924,0,0,1,.12876.08107.615.615,0,0,1,.21714.29859,3.7801,3.7801,0,0,1,.29649,1.37821l-.0014.0192c-.00069.01771-.00215.03484-.00348.05262a3.66618,3.66618,0,0,1-1.14,2.486c-.023.022-.04663.04408-.07029.06542-.00912.00924-.01879.01778-.02853.02631a4.18955,4.18955,0,0,1-2.13531,1.03822,6.54709,6.54709,0,0,1-4.59967-.46933,2.57,2.57,0,0,1-.44821-.26809c-.03751-.02418-.0744-.04836-.11128-.07325-.04044-.02773-.08074-.05546-.12041-.08391a9.61,9.61,0,0,1-2.68582-3.23129l-.0222-.03911-.00278-.005A6.81745,6.81745,0,0,0,26.43168,21.708a5.28844,5.28844,0,0,0-5.71949.71253A4.41636,4.41636,0,0,0,19.7997,23.574a6.2114,6.2114,0,0,0-.59074,1.17689l-.01614.04836-.002.00711A6.22459,6.22459,0,0,0,19.41,29.95975l.00411.00853c.00842.01565.01607.03129.02442.04616a8.68407,8.68407,0,0,0,3.28429,3.4092,10.89468,10.89468,0,0,0,3.42,1.34962,12.8663,12.8663,0,0,0,4.92817.09607,21.58025,21.58025,0,0,0,2.23678-.49713,13.94308,13.94308,0,0,0,4.64359-2.34169c.08421-.06329.16974-.12367.25194-.18916.01385-.01.02853-.01991.04238-.03129a10.25587,10.25587,0,0,0,1.9989-2.038l.01315-.01707.00842-.01a11.26526,11.26526,0,0,0,1.33759-2.02944l.02018-.037.01114-.0192A21.26659,21.26659,0,0,0,42.741,25.095l.02442-.05831.01524-.03627c.19418-.43875.36824-.88746.58817-1.31413a1.22,1.22,0,0,1,.22549-.34205.52046.52046,0,0,1,.12034-.08462,1.92507,1.92507,0,0,1,1.73157-.96924,1.56023,1.56023,0,0,1,1.68147,1.60995.39828.39828,0,0,1,.01253.0384H47.141a1.1313,1.1313,0,0,1-.85326,1.3504.85553.85553,0,0,1-1.01124-.352c-.14546-.21689-.1044-.34133.14476-.41315a1.41886,1.41886,0,0,0,.32912-.10809.48844.48844,0,0,0,.28118-.522.49379.49379,0,0,0-.428-.44942.8108.8108,0,0,0-.767.23467,2.73039,2.73039,0,0,0-.51571.79431c-.57063,1.22951-.99865,2.523-1.59447,3.74187l-.0048.00782-.01817.03122a19.78434,19.78434,0,0,1-1.75586,2.56149,5.88046,5.88046,0,0,1-.80809.83911h-.00133c-.02227.02062-.04315.03691-.06611.05468-.36678.31083-.73216.623-1.09971.933a15.50163,15.50163,0,0,1-2.33637,1.58151l-.09667.05547a14.16543,14.16543,0,0,1-2.56751,1.078,20.59079,20.59079,0,0,1-2.50271.58382,15.06535,15.06535,0,0,1-2.5421.24178c-.041,0-.08184-.00022-.12277-.00072m-2.94388-3.20284a7.81561,7.81561,0,0,1-3.48891-1.88871c-.36886-.357-.66395-.76871-.99732-1.152-.00912-.01636-.0181-.03271-.02784-.04907-.15736-.27591-.33546-.5376-.47744-.82489a4.58373,4.58373,0,0,1-.27769-3.66364,2.001,2.001,0,0,1,.17817-.517.45109.45109,0,0,1,.04941-.06123,3.15322,3.15322,0,0,1,1.43579-1.54944,3.99122,3.99122,0,0,1,3.10118-.3328,5.32458,5.32458,0,0,1,2.52157,1.63983c.01809.022.0634.02062.096.02986.014.02205.02784.0448.04113.06685.357.57813.70565,1.1633,1.07737,1.73155A6.48124,6.48124,0,0,0,30.414,28.00206l.00481.00427a7.16007,7.16007,0,0,0,3.11586,1.79911h.00069l.01816-.00213-.00347.0064a9.14258,9.14258,0,0,0,1.75663.3584,10.63916,10.63916,0,0,0,2.05381-.07609c.11553-.00925.29857-.09814.35209.10311.04739.17564-.1266.18979-.2248.25884a4.02306,4.02306,0,0,1-3.29187.57885,9.33884,9.33884,0,0,1-3.07411-1.17405,7.74348,7.74348,0,0,1-2.10607-1.85244,2.99063,2.99063,0,0,0-.26719-.2752c-.01531-.0128-.03062-.0256-.04523-.03911a3.91527,3.91527,0,0,1-.79619-1.11787,6.809,6.809,0,0,0-1.4003-1.79555,3.35061,3.35061,0,0,0-2.21945-.90176A2.6474,2.6474,0,0,0,21.523,25.99175a3.56667,3.56667,0,0,0,.11128,2.08569l.0007.00284.01461.03769A5.81317,5.81317,0,0,0,23.8078,30.823a6.88075,6.88075,0,0,0,3.03937,1.24089,7.561,7.561,0,0,0,2.337.2176.61124.61124,0,0,1,.20789.01038.55566.55566,0,0,0,.40255-.0502,11.56738,11.56738,0,0,1-3.5237-3.38276l-.01531-.02347c-.01114-.01635-.02227-.03271-.03271-.04977-.31256-.47574-.59791-.96854-.87484-1.467a2.03259,2.03259,0,0,0-.56165-.66773.53737.53737,0,0,0-.70432-.01.50243.50243,0,0,0-.1378.65785,5.53721,5.53721,0,0,0,.98542,1.58507l.03348.0406.00557.007a10.61913,10.61913,0,0,0,.9674,1.15414c.09117.10659.18854.20771.27275.32a.25038.25038,0,0,1,.05359.293c-.06675.11093-.17956.091-.28187.06613a3.81745,3.81745,0,0,1-1.15385-.554A5.26333,5.26333,0,0,1,22.96714,28.071c-.00627-.01138-.01253-.02276-.01817-.03484l-.00278-.00712a3.78662,3.78662,0,0,1-.16836-.6784,1.54231,1.54231,0,0,1,.5018-1.627,1.69707,1.69707,0,0,1,1.88886-.23466,2.16268,2.16268,0,0,1,.90678.79864,7.39054,7.39054,0,0,1,.85333,1.52242,10.45,10.45,0,0,0,2.16725,2.55929,13.78643,13.78643,0,0,0,2.36352,1.55236l.00271.00142c.63758.22471,1.25839.4992,1.91051.68338.0689.01913.17253.03342.167.14862-.00627.12658-.10927.0896-.18242.10453-.7948.16206-1.58326.36836-2.385.47431a6.57561,6.57561,0,0,1-1.02335.02631c-.249-.00647-.49839-.01294-.74581.00072q-.25566.01428-.51035.01408a10.93569,10.93569,0,0,1-2.83239-.39524m21.992.51271-.0801-.02418c-.911-.27662-.9166-.30151-.24916-.987a1.36057,1.36057,0,0,0,.346-.43591c.20879-.544.75513-.55467,1.1734-.76018.14817-.07324.32363-.28231.45726-.17138.16842.1408-.02436.34418-.07586.51627a4.37462,4.37462,0,0,1-1.29521,1.78773.24029.24029,0,0,1-.1909.07986c-.0254,0-.05352-.002-.0854-.00519m-29.006,4.79716c-.40018-.28025-.77663-.59456-1.16366-.89387l-.04238-.04267c-.46213-.46009-.93748-.90809-1.37949-1.38737a13.43157,13.43157,0,0,1-1.92157-2.69725c-.1385-.25458-.04517-.53973-.07788-.80853a.15155.15155,0,0,0-.00286-.0256V31.08971c.40993.37831.33616.88889.63271,1.20035.01107.025.0222.04978.034.074A11.91843,11.91843,0,0,0,16.464,34.77035a13.97917,13.97917,0,0,0,2.53256,2.44914.56116.56116,0,0,0,.12465.05333l.016.00284-.00487.00854a5.88344,5.88344,0,0,0,1.28476.88106,2.34806,2.34806,0,0,0,.78853.42667.165.165,0,0,1,.14261.17564c-.01149.07958-.08324.07837-.14386.07709-.00926-.00021-.01816-.00036-.02666-.00029-.37923.00214-.75721.00427-1.13721.02774-.01837.00113-.03668.0017-.0547.0017a2.13068,2.13068,0,0,1-1.13959-.5841m25.2366-1.47058a9.35716,9.35716,0,0,1-1.45591-1.12078,2.41333,2.41333,0,0,0-.44333-.39247.22037.22037,0,0,1-.13856-.22613c.01886-.12153.12325-.07964.19494-.09458.59289-.12373,1.18593-.24533,1.7656-.42382.06473-.01991.126-.05262.18868-.07893l.0048-.00214a7.269,7.269,0,0,0,1.34531-.58808c.1163-.08534.19209.01422.27359.07466a3.15893,3.15893,0,0,0,.86788.51627l.01663.00569a.23019.23019,0,0,1,.13439.25891.65446.65446,0,0,1-.85813.433.67744.67744,0,0,0-.68351-.00356c-.27623.11165-.55532.21476-.83927.30294-.11136.03413-.24784.02062-.25132.18062a.32316.32316,0,0,0,.19564.30578,4.925,4.925,0,0,1,.45788.23822c.28472.11378.30212.23111.09472.463-.21422.23851-.31026.3461-.43589.3461a1.0533,1.0533,0,0,1-.43414-.1947m-2.37946,1.42364c-.13787-.12089-.28535-.2304-.428-.34488-.0112-.00925-.02157-.01849-.03271-.027a9.91286,9.91286,0,0,0-3.878-1.94993c-.071-.01856-.174.02624-.19132-.09885-.016-.11591.0856-.13084.151-.16291a11.50786,11.50786,0,0,0,1.36758-.73735.80717.80717,0,0,1,.57417-.06329,3.94322,3.94322,0,0,0,.65213.06257c.06549-.00355.14615-.01422.165.08249a.19025.19025,0,0,1-.08428.18126c-.119.10888-.37436.11314-.34791.32072.02359.18567.25674.21767.40087.30016a15.15063,15.15063,0,0,1,2.955,2.11761.98655.98655,0,0,0,.18519.116l.02081.01208a.28413.28413,0,0,1-.15868.34276,1.29315,1.29315,0,0,1-.63041.27918c-.20086,0-.38744-.13724-.7204-.43065M14.2897,37.32828l-.00062-.02275c-.00842-.28729-.01886-.57458-.02227-.86187-.0014-.07538-.03828-.18418.064-.21333.09465-.027.13223.07822.17893.13867a5.14684,5.14684,0,0,0,.91311,1.046h.04385a.22591.22591,0,0,0-.016.032,9.02529,9.02529,0,0,0,1.14975,1.05671c.06744.05547.192.0704.15722.19911-.03543.133-.151.116-.25536.12516-.091.00768-.18067.01166-.26843.01166a1.92564,1.92564,0,0,1-1.94413-1.5114" style="fill:#fff"></path> </g> </g> </mask> <linearGradient id="linear-gradient-10" x1="-456.70733" y1="514.29559" x2="-455.74942" y2="513.17568" gradientTransform="matrix(37.95795, 0, 0, -24.11768, 17347.31909, 12416.67564)" xlink:href="#linear-gradient"></linearGradient> </defs> <title>asan imza</title> <g id="Group-10"> <circle id="Oval-Copy-3" cx="30.5" cy="30.5" r="30.5" style="fill:#e8e8e8;opacity:0.550000011920929;isolation:isolate"></circle> <g id="Group-31"> <g id="Group-3"> <g style="mask:url(#mask)"> <path id="Fill-1" d="M26.61131,44.02332c.02283.91165.00689,1.824.00626,2.73636-.00076.5632-.00076.5632.54975.53468.21359.0384.40833.04623.41194-.26126l.00028-.00014.00432-.23061-.00035-.00022c-.00063-.07033-.00139-.13994-.00278-.21027.07655-.40391-.08143-.80356-.0007-1.216.0515-.26027.12743-.24889.27414-.10951a11.35167,11.35167,0,0,1,.973.86542,12.83939,12.83939,0,0,1,1.25066,1.65689c.0689.1174.14894.1841.27491.16426.13773-.02133.09187-.14584.09187-.2304.00208-1.23235-.0014-2.464,0-3.69635,0-.19342-.07378-.32142-.26928-.34062a1.47369,1.47369,0,0,0-.18512-.00214,1.38914,1.38914,0,0,1-.197-.00355c-.197-.02134-.26238.05262-.25542.25671.01391.40178.002.805.00417,1.20818,0,.10169-.0167.19271-.11831.23111-.09744.03626-.12744-.05618-.18715-.10951a10.68215,10.68215,0,0,0-2.15619-1.546.6679.6679,0,0,0-.28312-.09259c-.15318,0-.19222.14557-.18589.39552" transform="translate(-1 -1)" style="fill:url(#linear-gradient)"></path> </g> </g> <g id="Group-6"> <g style="mask:url(#mask-2)"> <path id="Fill-4" d="M45.47351,43.67879a.47157.47157,0,0,1-.07538.0074c-.48634-.007-.97283-.00327-1.45931-.00327-.498,0-.99719.02176-1.49369-.00712-.37179-.02161-.37116.1957-.37889.46336-.00849.293.05415.4815.396.46742.23085-.0096.46219-.00754.6936-.00555.151.00128.30192.00256.45287.00064.202-.00263.23775.05618.14929.25166a2.2739,2.2739,0,0,1-.3.38194c-.405.56391-.827,1.115-1.24147,1.67189-.07913.10624-.27588.17444-.19905.334.04775.09927.1488.08512.24944.071a.58728.58728,0,0,1,.12813-.009c.06354.00555.12966-.03989.19633-.04971a8.70673,8.70673,0,0,1,2.78013.00989c.23663.04153.44354.10531.51905-.19826.0989-.39822-.07308-.70059-.40178-.75349a5.609,5.609,0,0,0-1.03032-.07517c-.11838.00292-.27706.07225-.35306-.05233-.09981-.16342.08456-.27.13641-.40427.01586-.04117.06034-.07005.08832-.10724.41841-.555.83787-1.10912,1.252-1.66734.05261-.0709.13564-.152.09131-.25308a.1231.1231,0,0,0-.12493-.08086.51527.51527,0,0,0-.075.00754" transform="translate(-1 -1)" style="fill:url(#linear-gradient-2)"></path> </g> </g> <g id="Group-9"> <g style="mask:url(#mask-3-2)"> <path id="Fill-7" d="M18.09743,43.97717c-.31395.14713-.33052.236-.08421.47353q.86544.8352,1.7441,1.65547a.27271.27271,0,0,1,.10439.24462c-.01259.11108-.07857.10574-.14392.10055a.2626.2626,0,0,0-.07176.00043,1.16785,1.16785,0,0,1-.46115-.02524,1.259,1.259,0,0,0-.42628-.03158,1.0516,1.0516,0,0,1-.26656-.04131c-.23941-.101-.33476.01422-.37366.23466-.243.41956-.17963.65778.22187.71047a4.72347,4.72347,0,0,0,1.83117.08889,3.65349,3.65349,0,0,0,1.28268-.42176c.27421-.19271.28117-.29155.04593-.51057q-.81429-.7552-1.61813-1.52107c-.094-.08967-.28528-.18133-.20385-.32782.07231-.13014.27692-.10738.42788-.133a.12071.12071,0,0,1,.0657.01863.134.134,0,0,0,.06319.01906,1.11876,1.11876,0,0,1,.33282.04778.67887.67887,0,0,0,.56359-.02574c.18228-.15218.08832-.396.18506-.57671.02026-.14649-.01183-.23538-.18025-.27662a4.698,4.698,0,0,0-1.12657-.14066,4.44827,4.44827,0,0,0-1.912.438" transform="translate(-1 -1)" style="fill:url(#linear-gradient-3)"></path> </g> </g> <g id="Group-12"> <g style="mask:url(#mask-4)"> <path id="Fill-10" d="M15.40806,43.59211a2.61005,2.61005,0,0,0-1.207,1.00138,4.42236,4.42236,0,0,0-.69326,2.12743c-.01782.19513-.09131.40512.0744.51677a.87475.87475,0,0,0,.67572.08021c.30226-.06969.13613-.34965.1735-.53973a3.14389,3.14389,0,0,1,.897-2.05931c.143-.13234.23545-.13838.37575-.0005a2.23761,2.23761,0,0,1,.6648.96505,3.68751,3.68751,0,0,1,.22765,1.19282c-.01086.23125.03772.4618.31757.47488.62115.02894.65964-.02979.66228-.69376a1.83249,1.83249,0,0,0-.08122-.4443,3.75111,3.75111,0,0,0-1.47135-2.43271.90779.90779,0,0,0-.4679-.21767.39363.39363,0,0,0-.14789.02944" transform="translate(-1 -1)" style="fill:url(#linear-gradient-4)"></path> </g> </g> <g id="Group-15"> <g style="mask:url(#mask-5)"> <path id="Fill-13" d="M23.98444,43.57632a2.74941,2.74941,0,0,0-1.05795.80967,4.33281,4.33281,0,0,0-.84038,2.35826c-.03974.5669-.06034.5654.43317.56533.4672-.00007.45161-.00121.485-.47673a3.391,3.391,0,0,1,.66312-1.87406c.33274-.43306.57432-.39971.91221.0443a3.56727,3.56727,0,0,1,.636,1.98187c.01768.24213.07885.35065.32342.3269a1.63065,1.63065,0,0,1,.20176-.00277,1.52,1.52,0,0,0,.21463-.00413.233.233,0,0,0,.2248-.31687,2.21627,2.21627,0,0,1-.04649-.24071A3.7822,3.7822,0,0,0,24.547,43.7403a.86554.86554,0,0,0-.42976-.19449.30145.30145,0,0,0-.13279.03051" transform="translate(-1 -1)" style="fill:url(#linear-gradient-5)"></path> </g> </g> <g id="Group-18"> <g style="mask:url(#mask-6-2)"> <path id="Fill-16" d="M33.90926,43.68057a.94737.94737,0,0,1-.14094.001c-.17225-.00711-.33894-.01429-.33427.30742q.02191,1.50474-.00306,3.00992c-.00543.33749.1886.31829.40526.31011.03354-.00128.068-.00028.10231.00071.17977.00505.35251.01017.34053-.30691-.01872-.495-.00466-.99129-.00466-1.48708h-.00257c0-.50759-.012-1.01568.00459-1.52263.00814-.249-.09674-.31865-.26844-.31865a.91032.91032,0,0,0-.09875.00612" transform="translate(-1 -1)" style="fill:url(#linear-gradient-6)"></path> </g> </g> <g id="Group-21"> <g style="mask:url(#mask-7)"> <path id="Fill-19" d="M33.85706,42.18517a.48687.48687,0,0,0-.549.48107c-.00835.21909.35007.59684.55573.58588a.73634.73634,0,0,0,.54654-.5686.55087.55087,0,0,0-.55134-.49835h-.00188" transform="translate(-1 -1)" style="fill:url(#linear-gradient-7)"></path> </g> </g> <g id="Group-24"> <g style="mask:url(#mask-8)"> <path id="Fill-22" d="M47.3568,44.25984a4.60218,4.60218,0,0,0-1.04263,2.78663c-.01434.11435.00807.23872.1323.251a5.963,5.963,0,0,0,.67405.00953.15489.15489,0,0,0,.16439-.184,2.93355,2.93355,0,0,1,.07676-.59143,2.64989,2.64989,0,0,1,.71337-1.69821c.28535-.298.38836-.30044.6712.02155a2.91753,2.91753,0,0,1,.71184,1.87847l-.00007.00007c-.03014.56228-.01629.57707.535.56846.04579-.00078.09145-.00391.13718-.006.37032-.00925.42015-.11037.27845-.56413l-.002-.13824-.06764-.20885.00188-.14009a.69938.69938,0,0,0-.12083-.502h.00007l-.04809-.14614.00007-.00007a2.68452,2.68452,0,0,0-.63312-1.22048,2.85012,2.85012,0,0,0-.33462-.33649,1.28618,1.28618,0,0,0-.81916-.46479c-.30456-.00007-.59742.23894-1.02844.68523" transform="translate(-1 -1)" style="fill:url(#linear-gradient-8)"></path> </g> </g> <g id="Group-27"> <g style="mask:url(#mask-9-2)"> <path id="Fill-25" d="M36.9281,43.56871a4.1419,4.1419,0,0,0-.9935.81174,4.59331,4.59331,0,0,0-.85375,2.28586c-.07969.623-.08943.65878.5082.63.4434.02488.4434.02488.41062-.5637a4.19354,4.19354,0,0,1,.09626-.51129A2.66671,2.66671,0,0,1,36.87,44.73991c.06138-.0576.11768-.14457.23335-.12274a.88508.88508,0,0,1,.53347.905,12.19277,12.19277,0,0,0-.3,1.49711c-.02317.11825-.0087.2688.13871.27889a1.44177,1.44177,0,0,0,.75151-.03342c.17524-.08882.05686-.32569.08491-.49408.02269-.1371.0428-.2747.07029-.41074a3.04978,3.04978,0,0,1,.80426-1.62759c.15326-.15246.28793-.15225.41425-.01991a2.81375,2.81375,0,0,1,.86551,1.966c.00466.6442-.12062.63595.64843.62969.03473-.00028.06946-.00121.10412-.00071.18854.00291.24206-.10112.20865-.27435l.00835-.14528c.04573-.20288-.05957-.38706-.06939-.583H41.3663l.00007-.00007-.00362-.21148a2.355,2.355,0,0,1-.12388-.325,3.18038,3.18038,0,0,0-1.3577-2.00718.66362.66362,0,0,0-.92125-.00313c-.16718.15474-.38286.25842-.53625.4241-.16362.17664-.25326.11912-.3839-.02538a1.94971,1.94971,0,0,0-.88576-.57024.562.562,0,0,0-.15109-.042.12567.12567,0,0,0-.07482.02439" transform="translate(-1 -1)" style="fill:url(#linear-gradient-9)"></path> </g> </g> <g id="Group-30"> <g style="mask:url(#mask-10)"> <path id="Fill-28" d="M38.10443,16.07872c-.34131.00427-.68275.0086-1.02447.00732-4.39986-.01713-8.79978-.00931-13.19978-.00931-2.4011,0-4.8022-.005-7.20253.005a5.58259,5.58259,0,0,0-1.09755.11306A3.24659,3.24659,0,0,0,13,19.32188V19.341a3.14517,3.14517,0,0,0,.02234.36452q.001,2.09812.00285,4.19555.00105,1.99041.0014,3.98144.00093,2.27639.00132,4.5519,0,2.48853.00069,4.97706a3.23388,3.23388,0,0,0,3.29828,2.76765q3.29462-.00661,6.58917.00391c4.80408.009,9.60788.01821,14.41175-.06293,1.25128-.02126,2.50549-.04978,3.75469.01a4.54159,4.54159,0,0,0,1.93062-.33,5.72636,5.72636,0,0,0,2.31062-1.74656c.04113-.01487.09542-.01842.12249-.04758.83454-.89031,1.68919-1.75929,2.54378-2.629a5.59147,5.59147,0,0,0,.87831-.953,5.40366,5.40366,0,0,0,1.46641-1.76839,5.25744,5.25744,0,0,0,.60209-2.92344q0-2.52373.00132-5.04818.00219-2.48961.00285-4.97849a3.17462,3.17462,0,0,0-.65978-2.27911,3.45381,3.45381,0,0,0-2.9182-1.34614c-1.16513-.01422-2.33088.00356-3.49663.00356q-.51353-.00021-1.02718.00021c-1.18127.00057-2.36275.00114-3.54389-.01159q-.146-.00138-.292-.00135c-.29968,0-.59923.00377-.89884.00761M27.76655,38.82162a13.4521,13.4521,0,0,1-3.60241-.64356,17.96955,17.96955,0,0,1-2.64532-1.06169c-.055-.01422-.10788-.03129-.16014-.05049a4.511,4.511,0,0,1-1.02719-.65493,13.2013,13.2013,0,0,1-3.55021-3.88551.608.608,0,0,1-.128-.283.24522.24522,0,0,1,.00063-.0384,2.86943,2.86943,0,0,0-.37513-.77718,9.94,9.94,0,0,1-1.04326-3.23918,2.77134,2.77134,0,0,0-.07162-.30514l.002-.03477c.01462-.37618-.096-.74453-.06257-1.12284a10.98537,10.98537,0,0,1,.47048-2.72427l.00967-.02916a9.93216,9.93216,0,0,1,2.38308-4.03271,1.31357,1.31357,0,0,0,.10161-.123l.03132-.03911a8.65693,8.65693,0,0,1,1.84641-1.35609,7.94542,7.94542,0,0,1,2.84164-.92722,9.89416,9.89416,0,0,1,1.614-.13945,9.35844,9.35844,0,0,1,5.19194,1.65405,9.56834,9.56834,0,0,0,1.028.76871c.02638.01351.05081.02837.07579.04338h.0007a4.11905,4.11905,0,0,1,.85959.83626,12.686,12.686,0,0,1,1.57283,2.20232c.05567.09457.08073.25457.2234.23473.12117-.01713.11066-.16505.14-.26247a7.43439,7.43439,0,0,1,.98125-1.90578c.23113-.3584.34806-.77084.58121-1.12284v-.00071l.01733-.02631c.22758-.48782-.04239-.89814-.22473-1.30418a1.48938,1.48938,0,0,0-.61246-.74738c-.087-.04764-.22271-.12942-.16153-.27449.04879-.11733.17684-.10176.27776-.09031a2.96372,2.96372,0,0,0,.8518.02631c.18659-.03129.38076.14365.52065.31147a2.405,2.405,0,0,1,.47389,2.15111.15534.15534,0,0,1,.0174.02909v.00078l.00077.00071c.07655.14222-.00279.27378-.04664.40611a7.653,7.653,0,0,1-.88186,1.558,11.21152,11.21152,0,0,0-.69945,1.36818l-.0048.01137c-.00487.01487-.00982.02987-.01392.04487a3.97766,3.97766,0,0,0-.0348,2.09344c.04656.20338.18235.47574-.05436.62223-.23732.14649-.43706-.08178-.62073-.20907a4.27924,4.27924,0,0,1-1.13513-1.28213c-.35007-.55119-.66047-1.12719-1.03567-1.66116l-.01107-.01635-.023-.03627a10.41166,10.41166,0,0,0-2.33637-2.59627,7.55316,7.55316,0,0,0-4.60245-1.664,8.276,8.276,0,0,0-3.31693.45227,7.51516,7.51516,0,0,0-3.63652,2.95609A9.46573,9.46573,0,0,0,16.72,23.99353l-.01461.04124-.00968.0256a8.04042,8.04042,0,0,0-.5004,2.64455,7.61739,7.61739,0,0,0,.3681,2.51385c.00626.02055.0126.03983.01956.06045v.00071l.00835.0256a11.77733,11.77733,0,0,0,2.3489,4.1856,2.80193,2.80193,0,0,1,.52754.6848c.0062.0128.01177.0256.01678.03911A10.61428,10.61428,0,0,0,21.90578,36.123a11.22878,11.22878,0,0,0,2.60077,1.09938,14.73928,14.73928,0,0,0,5.0744.60579,16.84666,16.84666,0,0,0,2.1811-.29368,16.24192,16.24192,0,0,1,4.52736-.54543,6.25787,6.25787,0,0,1,2.64886.91741c.09813.059.18235.14862.30832.14578l.01176-.00285-.002.01138v.00071a4.73156,4.73156,0,0,0,.72652.49849c.08428.05333.19077.12018.16773.246-.02053.11079-.09214.103-.16362.09529a.25485.25485,0,0,0-.09312.00079.11372.11372,0,0,1-.03654.00106.1286.1286,0,0,0-.03306.00021,4.75707,4.75707,0,0,1-2.75326-.67477,4.19176,4.19176,0,0,0-2.175-.20842c-1.22762.15153-2.43033.44451-3.65169.62869a18.11434,18.11434,0,0,1-2.71693.1824q-.38031,0-.76083-.0096M17.05688,18.24917a1.166,1.166,0,0,0-.08978-.44444c-.13843-.347-.06883-.44516.291-.44871.12736-.00078.254,0,.38132.00071.16147,0,.3237-.00071.48516.00071.0689.00071.14539,0,.16564.08889a.14575.14575,0,0,1-.0634.1536,10.54319,10.54319,0,0,0-.9507.758.18506.18506,0,0,1-.11908.06109c-.05971,0-.10015-.05917-.10015-.16989m25.0237-.30506a10.252,10.252,0,0,1,4.19879-.50489,6.3954,6.3954,0,0,1,2.96894.82922,1.4853,1.4853,0,0,1,.43993,1.16971c-.05506.17493-.17539.13369-.27631.07609-.19139-.10951-.3738-.23467-.55747-.35769a4.8051,4.8051,0,0,0-2.28209-.73671,13.23177,13.23177,0,0,0-1.33278-.08818,8.82931,8.82931,0,0,0-1.80055.202,6.77581,6.77581,0,0,0-1.51506.48355.306.306,0,0,1-.32578-.03911,5.14326,5.14326,0,0,0-2.14916-.69042c-.57348-.08113-.83509.20331-.71545.78429a.819.819,0,0,1,.01948.27875c-.05567.37832.02165.47005.435.48854.05783.01564.11622.02922.17468.04195h.00077c.254.0576.51077.09885.76278.1728a4.11531,4.11531,0,0,1,1.55264.81344c.14414.1231.29927.17863.43714.05625a4.38779,4.38779,0,0,1,2.48664-1.03111c.126-.01493.25194-.02773.37721-.03627h.00355a6.53588,6.53588,0,0,1,1.02169-.00142h.00132a4.3152,4.3152,0,0,1,2.62659,1.09369,2.89973,2.89973,0,0,1,.98759,2.21717,7.272,7.272,0,0,1-.05213,1.492v.00071l-.00487.02489a3.651,3.651,0,0,1-1.43169,2.299,5.43759,5.43759,0,0,1-2.03014.85547c-.31173.06755-.6222.16711-.65971.5952a1.56167,1.56167,0,0,1-.1914.44792c-.00215.01352-.00424.02781-.007.04132a2.82887,2.82887,0,0,1-.57765,1.10364,11.735,11.735,0,0,1-1.29659,1.61352.5066.5066,0,0,0-.12458.16782.114.114,0,0,0,.0112.13162c.03752.03976.08206.02482.12737.007a5.88233,5.88233,0,0,0,2.55623-1.70524,3.76316,3.76316,0,0,0,.387-.50062,1.40919,1.40919,0,0,1,1.16992-.68338h.00982c.10293-.01422.208-.02347.31318-.03271a4.62907,4.62907,0,0,0,1.47129-.82916c.09945-.08256.20531-.20053.32919-.14649.14469.06258.05073.231.07162.35129.00981.05689-.00836.12018.00285.17707.09117.44508-.14476.67556-.50667.83769a.78612.78612,0,0,0-.2875.17422.30459.30459,0,0,0-.04664.06613,10.44786,10.44786,0,0,0-1.50747.55325c-.26168.13938-.40018.50418-.62213.73891A6.95132,6.95132,0,0,1,43.897,32.812a9.85619,9.85619,0,0,1-2.6474.54257c-.02805.00178-.05617.00121-.084.00064-.01852-.00049-.037-.00085-.05526-.00064-.14052.0037-.30693-.03264-.36045-.13937-.0508-.10091.11477-.182.19209-.26382A14.73364,14.73364,0,0,0,41.96853,31.862c.00278-.01784.00619-.03562.01044-.05269a1.0178,1.0178,0,0,1,.20246-.38115A26.03075,26.03075,0,0,0,44.22417,28.31l.0174-.03065.02575-.04544a10.36607,10.36607,0,0,0,.51084-1.23946c.1037-.34205.25125-.45085.56513-.34987a2.77457,2.77457,0,0,0,3.30022-2.71787v-.04693a2.45652,2.45652,0,0,0-1.291-2.56427,4.421,4.421,0,0,0-3.96356.00072,2.12358,2.12358,0,0,0-.93747.87111c-.21652.38542-.467.39324-.76974.05681a4.34353,4.34353,0,0,0-2.56333-1.37877,3.48207,3.48207,0,0,0-1.23876-.10091c-.27421.049-.40512-.13589-.3452-.42247a1.29662,1.29662,0,0,1,.14546-.4416.50165.50165,0,0,1,.03758-.05262,1.12673,1.12673,0,0,0,.009-.79431c-.11755-.37412-.064-.80284-.36393-1.12-.11977-.12658-.02227-.22827.10161-.261A6.42038,6.42038,0,0,1,39.93,17.457a5.4596,5.4596,0,0,1,1.81446.5184.23318.23318,0,0,0,.10927.02552.68131.68131,0,0,0,.22689-.05681m-9.44224,1.83253-.00424-.00142.00216-.00142a8.4415,8.4415,0,0,0-2.37535-2.12616c-.06681-.04131-.17887-.04771-.15381-.153.02011-.082.09173-.07552.15757-.069a.51615.51615,0,0,0,.05324.00355c.23879-.0022.47785-.00163.71706-.00114q.21526.00054.43066.00043a1.01481,1.01481,0,0,1,.39949.1088A4.52678,4.52678,0,0,1,33.296,18.70713a1.26314,1.26314,0,0,1,.26168.92871l-.01461.04622v.00071c-.07378.2368-.165.50631-.39949.54685a.2515.2515,0,0,1-.0428.00384c-.21756,0-.30275-.309-.46248-.45682M14.35025,22.38428c-.12033-.03484-.07586-.15644-.07586-.2432-.00417-.80568-.00417-1.61137-.00557-2.41635v-.02141a2.30276,2.30276,0,0,1,.68832-1.87591c.14553-.12935.25194-.17344.3104.06976a4.15069,4.15069,0,0,1,.05088,1.80836l-.0007.0128a7.096,7.096,0,0,1-.577,2.07011c-.048.14429-.10579.28509-.167.42376-.03612.08362-.08.17948-.175.17948a.17509.17509,0,0,1-.04844-.0074m14.45392,13.7984a13.15648,13.15648,0,0,1-7.21993-2.119c-.04454-.02134-.08839-.04352-.13084-.06692a6.48266,6.48266,0,0,1-1.6711-1.41156,8.85323,8.85323,0,0,1-1.76846-2.86585c-.05143-.135-.064-.27726-.10363-.41379l-.009-.03129-.00279-.00711a4.62261,4.62261,0,0,1-.3223-1.76221,8.1006,8.1006,0,0,1,.21164-2.28757,9.07277,9.07277,0,0,1,.41341-1.1392l.01044-.02275.00765-.01707a6.64246,6.64246,0,0,1,2.70594-3.25973,5.58514,5.58514,0,0,1,2.62026-.74454,7.46938,7.46938,0,0,1,2.91062.38116,8.125,8.125,0,0,1,3.4541,2.36586c.01246.01565.02575.032.03828.04836.01176.015.02429.02987.03542.0448v.00071a14.22514,14.22514,0,0,1,1.1359,1.68029,6.14925,6.14925,0,0,0,2.84784,2.7158,5.01949,5.01949,0,0,0,4.97967-.43172,2.23662,2.23662,0,0,0,.80739-2.56988,1.48917,1.48917,0,0,0-2.43172-.41742.97009.97009,0,0,0-.15033.93938.46391.46391,0,0,0,.8463.14435,1.0928,1.0928,0,0,0,.09883-.14649c.096-.16071.2122-.28871.41967-.2432a.48651.48651,0,0,1,.36044.39254.97452.97452,0,0,1-.44047,1.16622,1.61431,1.61431,0,0,1-2.29678-.52409,2.47936,2.47936,0,0,1-.03132-2.09209.49409.49409,0,0,1,.09124-.13938.43738.43738,0,0,1,.11686-.0896,2.26765,2.26765,0,0,1,2.05381-.99634,2.77946,2.77946,0,0,1,2.05457.99634.74924.74924,0,0,1,.12876.08107.615.615,0,0,1,.21714.29859,3.7801,3.7801,0,0,1,.29649,1.37821l-.0014.0192c-.00069.01771-.00215.03484-.00348.05262a3.66618,3.66618,0,0,1-1.14,2.486c-.023.022-.04663.04408-.07029.06542-.00912.00924-.01879.01778-.02853.02631a4.18955,4.18955,0,0,1-2.13531,1.03822,6.54709,6.54709,0,0,1-4.59967-.46933,2.57,2.57,0,0,1-.44821-.26809c-.03751-.02418-.0744-.04836-.11128-.07325-.04044-.02773-.08074-.05546-.12041-.08391a9.61,9.61,0,0,1-2.68582-3.23129l-.0222-.03911-.00278-.005A6.81745,6.81745,0,0,0,26.43168,21.708a5.28844,5.28844,0,0,0-5.71949.71253A4.41636,4.41636,0,0,0,19.7997,23.574a6.2114,6.2114,0,0,0-.59074,1.17689l-.01614.04836-.002.00711A6.22459,6.22459,0,0,0,19.41,29.95975l.00411.00853c.00842.01565.01607.03129.02442.04616a8.68407,8.68407,0,0,0,3.28429,3.4092,10.89468,10.89468,0,0,0,3.42,1.34962,12.8663,12.8663,0,0,0,4.92817.09607,21.58025,21.58025,0,0,0,2.23678-.49713,13.94308,13.94308,0,0,0,4.64359-2.34169c.08421-.06329.16974-.12367.25194-.18916.01385-.01.02853-.01991.04238-.03129a10.25587,10.25587,0,0,0,1.9989-2.038l.01315-.01707.00842-.01a11.26526,11.26526,0,0,0,1.33759-2.02944l.02018-.037.01114-.0192A21.26659,21.26659,0,0,0,42.741,25.095l.02442-.05831.01524-.03627c.19418-.43875.36824-.88746.58817-1.31413a1.22,1.22,0,0,1,.22549-.34205.52046.52046,0,0,1,.12034-.08462,1.92507,1.92507,0,0,1,1.73157-.96924,1.56023,1.56023,0,0,1,1.68147,1.60995.39828.39828,0,0,1,.01253.0384H47.141a1.1313,1.1313,0,0,1-.85326,1.3504.85553.85553,0,0,1-1.01124-.352c-.14546-.21689-.1044-.34133.14476-.41315a1.41886,1.41886,0,0,0,.32912-.10809.48844.48844,0,0,0,.28118-.522.49379.49379,0,0,0-.428-.44942.8108.8108,0,0,0-.767.23467,2.73039,2.73039,0,0,0-.51571.79431c-.57063,1.22951-.99865,2.523-1.59447,3.74187l-.0048.00782-.01817.03122a19.78434,19.78434,0,0,1-1.75586,2.56149,5.88046,5.88046,0,0,1-.80809.83911h-.00133c-.02227.02062-.04315.03691-.06611.05468-.36678.31083-.73216.623-1.09971.933a15.50163,15.50163,0,0,1-2.33637,1.58151l-.09667.05547a14.16543,14.16543,0,0,1-2.56751,1.078,20.59079,20.59079,0,0,1-2.50271.58382,15.06535,15.06535,0,0,1-2.5421.24178c-.041,0-.08184-.00022-.12277-.00072m-2.94388-3.20284a7.81561,7.81561,0,0,1-3.48891-1.88871c-.36886-.357-.66395-.76871-.99732-1.152-.00912-.01636-.0181-.03271-.02784-.04907-.15736-.27591-.33546-.5376-.47744-.82489a4.58373,4.58373,0,0,1-.27769-3.66364,2.001,2.001,0,0,1,.17817-.517.45109.45109,0,0,1,.04941-.06123,3.15322,3.15322,0,0,1,1.43579-1.54944,3.99122,3.99122,0,0,1,3.10118-.3328,5.32458,5.32458,0,0,1,2.52157,1.63983c.01809.022.0634.02062.096.02986.014.02205.02784.0448.04113.06685.357.57813.70565,1.1633,1.07737,1.73155A6.48124,6.48124,0,0,0,30.414,28.00206l.00481.00427a7.16007,7.16007,0,0,0,3.11586,1.79911h.00069l.01816-.00213-.00347.0064a9.14258,9.14258,0,0,0,1.75663.3584,10.63916,10.63916,0,0,0,2.05381-.07609c.11553-.00925.29857-.09814.35209.10311.04739.17564-.1266.18979-.2248.25884a4.02306,4.02306,0,0,1-3.29187.57885,9.33884,9.33884,0,0,1-3.07411-1.17405,7.74348,7.74348,0,0,1-2.10607-1.85244,2.99063,2.99063,0,0,0-.26719-.2752c-.01531-.0128-.03062-.0256-.04523-.03911a3.91527,3.91527,0,0,1-.79619-1.11787,6.809,6.809,0,0,0-1.4003-1.79555,3.35061,3.35061,0,0,0-2.21945-.90176A2.6474,2.6474,0,0,0,21.523,25.99175a3.56667,3.56667,0,0,0,.11128,2.08569l.0007.00284.01461.03769A5.81317,5.81317,0,0,0,23.8078,30.823a6.88075,6.88075,0,0,0,3.03937,1.24089,7.561,7.561,0,0,0,2.337.2176.61124.61124,0,0,1,.20789.01038.55566.55566,0,0,0,.40255-.0502,11.56738,11.56738,0,0,1-3.5237-3.38276l-.01531-.02347c-.01114-.01635-.02227-.03271-.03271-.04977-.31256-.47574-.59791-.96854-.87484-1.467a2.03259,2.03259,0,0,0-.56165-.66773.53737.53737,0,0,0-.70432-.01.50243.50243,0,0,0-.1378.65785,5.53721,5.53721,0,0,0,.98542,1.58507l.03348.0406.00557.007a10.61913,10.61913,0,0,0,.9674,1.15414c.09117.10659.18854.20771.27275.32a.25038.25038,0,0,1,.05359.293c-.06675.11093-.17956.091-.28187.06613a3.81745,3.81745,0,0,1-1.15385-.554A5.26333,5.26333,0,0,1,22.96714,28.071c-.00627-.01138-.01253-.02276-.01817-.03484l-.00278-.00712a3.78662,3.78662,0,0,1-.16836-.6784,1.54231,1.54231,0,0,1,.5018-1.627,1.69707,1.69707,0,0,1,1.88886-.23466,2.16268,2.16268,0,0,1,.90678.79864,7.39054,7.39054,0,0,1,.85333,1.52242,10.45,10.45,0,0,0,2.16725,2.55929,13.78643,13.78643,0,0,0,2.36352,1.55236l.00271.00142c.63758.22471,1.25839.4992,1.91051.68338.0689.01913.17253.03342.167.14862-.00627.12658-.10927.0896-.18242.10453-.7948.16206-1.58326.36836-2.385.47431a6.57561,6.57561,0,0,1-1.02335.02631c-.249-.00647-.49839-.01294-.74581.00072q-.25566.01428-.51035.01408a10.93569,10.93569,0,0,1-2.83239-.39524m21.992.51271-.0801-.02418c-.911-.27662-.9166-.30151-.24916-.987a1.36057,1.36057,0,0,0,.346-.43591c.20879-.544.75513-.55467,1.1734-.76018.14817-.07324.32363-.28231.45726-.17138.16842.1408-.02436.34418-.07586.51627a4.37462,4.37462,0,0,1-1.29521,1.78773.24029.24029,0,0,1-.1909.07986c-.0254,0-.05352-.002-.0854-.00519m-29.006,4.79716c-.40018-.28025-.77663-.59456-1.16366-.89387l-.04238-.04267c-.46213-.46009-.93748-.90809-1.37949-1.38737a13.43157,13.43157,0,0,1-1.92157-2.69725c-.1385-.25458-.04517-.53973-.07788-.80853a.15155.15155,0,0,0-.00286-.0256V31.08971c.40993.37831.33616.88889.63271,1.20035.01107.025.0222.04978.034.074A11.91843,11.91843,0,0,0,16.464,34.77035a13.97917,13.97917,0,0,0,2.53256,2.44914.56116.56116,0,0,0,.12465.05333l.016.00284-.00487.00854a5.88344,5.88344,0,0,0,1.28476.88106,2.34806,2.34806,0,0,0,.78853.42667.165.165,0,0,1,.14261.17564c-.01149.07958-.08324.07837-.14386.07709-.00926-.00021-.01816-.00036-.02666-.00029-.37923.00214-.75721.00427-1.13721.02774-.01837.00113-.03668.0017-.0547.0017a2.13068,2.13068,0,0,1-1.13959-.5841m25.2366-1.47058a9.35716,9.35716,0,0,1-1.45591-1.12078,2.41333,2.41333,0,0,0-.44333-.39247.22037.22037,0,0,1-.13856-.22613c.01886-.12153.12325-.07964.19494-.09458.59289-.12373,1.18593-.24533,1.7656-.42382.06473-.01991.126-.05262.18868-.07893l.0048-.00214a7.269,7.269,0,0,0,1.34531-.58808c.1163-.08534.19209.01422.27359.07466a3.15893,3.15893,0,0,0,.86788.51627l.01663.00569a.23019.23019,0,0,1,.13439.25891.65446.65446,0,0,1-.85813.433.67744.67744,0,0,0-.68351-.00356c-.27623.11165-.55532.21476-.83927.30294-.11136.03413-.24784.02062-.25132.18062a.32316.32316,0,0,0,.19564.30578,4.925,4.925,0,0,1,.45788.23822c.28472.11378.30212.23111.09472.463-.21422.23851-.31026.3461-.43589.3461a1.0533,1.0533,0,0,1-.43414-.1947m-2.37946,1.42364c-.13787-.12089-.28535-.2304-.428-.34488-.0112-.00925-.02157-.01849-.03271-.027a9.91286,9.91286,0,0,0-3.878-1.94993c-.071-.01856-.174.02624-.19132-.09885-.016-.11591.0856-.13084.151-.16291a11.50786,11.50786,0,0,0,1.36758-.73735.80717.80717,0,0,1,.57417-.06329,3.94322,3.94322,0,0,0,.65213.06257c.06549-.00355.14615-.01422.165.08249a.19025.19025,0,0,1-.08428.18126c-.119.10888-.37436.11314-.34791.32072.02359.18567.25674.21767.40087.30016a15.15063,15.15063,0,0,1,2.955,2.11761.98655.98655,0,0,0,.18519.116l.02081.01208a.28413.28413,0,0,1-.15868.34276,1.29315,1.29315,0,0,1-.63041.27918c-.20086,0-.38744-.13724-.7204-.43065M14.2897,37.32828l-.00062-.02275c-.00842-.28729-.01886-.57458-.02227-.86187-.0014-.07538-.03828-.18418.064-.21333.09465-.027.13223.07822.17893.13867a5.14684,5.14684,0,0,0,.91311,1.046h.04385a.22591.22591,0,0,0-.016.032,9.02529,9.02529,0,0,0,1.14975,1.05671c.06744.05547.192.0704.15722.19911-.03543.133-.151.116-.25536.12516-.091.00768-.18067.01166-.26843.01166a1.92564,1.92564,0,0,1-1.94413-1.5114" transform="translate(-1 -1)" style="fill:url(#linear-gradient-10)"></path> </g> </g> </g> </g> </svg> 