<?xml version="1.0" encoding="UTF-8"?> <!-- Generator: Adobe Illustrator 22.1.0, SVG Export Plug-In . SVG Version: 6.00 Build 0) --> <svg xmlns="http://www.w3.org/2000/svg" xmlns:xlink="http://www.w3.org/1999/xlink" id="Layer_1" x="0px" y="0px" viewBox="0 0 63.2 63" style="enable-background:new 0 0 63.2 63;" xml:space="preserve"> <style type="text/css"> .st0{fill:#E8E8E8;fill-opacity:0.55;} .st1{fill:#A4C2F7;} .st2{fill:#FFFFFF;} .st3{fill:url(#SVGID_1_);} .st4{fill:#7FACFA;} .st5{fill:#428DFF;} </style> <g> <circle class="st0" cx="31.8" cy="31.6" r="30.5"></circle> <path class="st1" d="M26,29.1h11.4v17.4H26V29.1z"></path> <path class="st2" d="M26,29.1h11.4v17.4H26V29.1z"></path> <linearGradient id="SVGID_1_" gradientUnits="userSpaceOnUse" x1="-445.8008" y1="507.3777" x2="-444.8563" y2="506.3152" gradientTransform="matrix(19.598 0 0 -17.404 8759.3037 8858.9648)"> <stop offset="0" style="stop-color:#D4E1F4"></stop> <stop offset="0.1717" style="stop-color:#D4E1F4"></stop> <stop offset="0.2" style="stop-color:#D4E1F4"></stop> <stop offset="0.2001" style="stop-color:#DAE4F4"></stop> <stop offset="0.2007" style="stop-color:#EBEBF4"></stop> <stop offset="0.2014" style="stop-color:#F6F1F4"></stop> <stop offset="0.2023" style="stop-color:#FDF4F4"></stop> <stop offset="0.205" style="stop-color:#FFF5F4"></stop> <stop offset="0.2522" style="stop-color:#FFF5F4"></stop> <stop offset="0.26" style="stop-color:#FFF5F4"></stop> <stop offset="0.26" style="stop-color:#D4E1F4"></stop> <stop offset="0.3974" style="stop-color:#D4E1F4"></stop> <stop offset="0.42" style="stop-color:#D4E1F4"></stop> <stop offset="0.4201" style="stop-color:#DAE4F4"></stop> <stop offset="0.4207" style="stop-color:#EBEBF4"></stop> <stop offset="0.4214" style="stop-color:#F6F1F4"></stop> <stop offset="0.4223" style="stop-color:#FDF4F4"></stop> <stop offset="0.425" style="stop-color:#FFF5F4"></stop> <stop offset="0.4894" style="stop-color:#FFF5F4"></stop> <stop offset="0.5" style="stop-color:#FFF5F4"></stop> <stop offset="0.5" style="stop-color:#F9F2F4"></stop> <stop offset="0.5001" style="stop-color:#E8EBF4"></stop> <stop offset="0.5003" style="stop-color:#DDE5F4"></stop> <stop offset="0.5005" style="stop-color:#D6E2F4"></stop> <stop offset="0.501" style="stop-color:#D4E1F4"></stop> <stop offset="0.7062" style="stop-color:#D4E1F4"></stop> <stop offset="0.74" style="stop-color:#D4E1F4"></stop> <stop offset="0.741" style="stop-color:#FFF5F4"></stop> <stop offset="0.8346" style="stop-color:#FFF5F4"></stop> <stop offset="0.85" style="stop-color:#FFF5F4"></stop> <stop offset="0.851" style="stop-color:#D4E1F4"></stop> </linearGradient> <path class="st3" d="M22,29.1h19.6v17.4H22V29.1z"></path> <path class="st4" d="M31.8,33.5c0.9,0,1.6,0.7,1.6,1.6v3.3c0,0.9-0.7,1.6-1.6,1.6c-0.9,0-1.6-0.7-1.6-1.6v-3.3 C30.1,34.2,30.9,33.5,31.8,33.5z"></path> <path class="st1" d="M31.3,33.5c-0.1,0.2-0.2,0.3-0.4,0.3v5.6c0,0,0.1,0,0.1,0c0.3,0,0.5,0.2,0.5,0.4c0.6-0.3,1-0.8,1-1.5v-3.3 C32.6,34.3,32,33.7,31.3,33.5z"></path> <path class="st4" d="M25.5,43.2H38v3.3H25.5V43.2z"></path> <path class="st2" d="M25.5,43.2H38v3.3H25.5V43.2z"></path> <path class="st1" d="M22,43.2h19.6v3.3H22V43.2z"></path> <g> <path class="st5" d="M43.2,47.1H20.3c-0.3,0-0.5-0.2-0.5-0.5V29.1c0-0.3,0.2-0.5,0.5-0.5c0,0,0,0,0,0h22.9c0.3,0,0.5,0.2,0.5,0.5 v17.4C43.7,46.8,43.5,47.1,43.2,47.1C43.2,47.1,43.2,47.1,43.2,47.1z M20.9,46h21.8V29.6H20.9C20.9,29.6,20.9,46,20.9,46z"></path> <path class="st5" d="M37.7,29.6H25.2c-0.3,0-0.5-0.2-0.5-0.5v-6.7c0-3.5,3.1-6.3,6.8-6.3s6.8,2.8,6.8,6.3v6.7 C38.3,29.4,38,29.6,37.7,29.6C37.7,29.6,37.7,29.6,37.7,29.6z M25.8,28.6h11.4v-6.2c0-2.9-2.6-5.2-5.7-5.2s-5.7,2.3-5.7,5.2 C25.8,22.4,25.8,28.6,25.8,28.6z M31.8,40.5c-1.2,0-2.2-1-2.2-2.2v-3.3c0-1.2,1-2.2,2.2-2.2c1.2,0,2.2,1,2.2,2.2v3.3 C33.9,39.6,33,40.5,31.8,40.5z M31.8,34c-0.6,0-1.1,0.5-1.1,1.1v3.3c0,0.6,0.5,1.1,1.1,1.1s1.1-0.5,1.1-1.1v-3.3 C32.8,34.5,32.4,34,31.8,34z M43.2,47.1H20.3c-0.3,0-0.5-0.2-0.5-0.5v-3.3c0-0.3,0.2-0.5,0.5-0.5c0,0,0,0,0,0h22.9 c0.3,0,0.5,0.2,0.5,0.5v3.3C43.7,46.8,43.5,47.1,43.2,47.1C43.2,47.1,43.2,47.1,43.2,47.1z M20.9,46h21.8v-2.2H20.9V46z"></path> </g> </g> </svg> 